<svg width="65" height="73" viewBox="0 0 65 73" fill="none" xmlns="http://www.w3.org/2000/svg">
    <path d="M63.1041 71.9369H4.96698C6.05484 71.0996 7.51912 70.0234 9.28626 68.8436C13.3419 66.1361 18.966 62.9015 25.2776 60.7502C31.5929 58.5976 38.5316 57.5513 45.2572 59.1354C51.5362 60.6143 57.7253 64.4078 63.1041 71.9369Z"
          fill="#FAFAFA" stroke="#1A1919" stroke-width="2"/>
    <path d="M6.77613 53.0596H2.42162C1.63648 53.0596 1 53.7292 1 54.5552V71.5044C1 72.3304 1.63648 73 2.42162 73H6.77613C7.56127 73 8.19775 72.3304 8.19775 71.5044V54.5552C8.19775 53.7292 7.56127 53.0596 6.77613 53.0596Z"
          fill="url(#paint0_linear)"/>
    <path d="M20.4519 41.0701H16.0974C15.3123 41.0701 14.6758 41.7397 14.6758 42.5657V71.5043C14.6758 72.3303 15.3123 72.9999 16.0974 72.9999H20.4519C21.2371 72.9999 21.8735 72.3303 21.8735 71.5043V42.5657C21.8735 41.7397 21.2371 41.0701 20.4519 41.0701Z"
          fill="url(#paint1_linear)"/>
    <path d="M34.1277 32.7406H29.7732C28.988 32.7406 28.3516 33.4102 28.3516 34.2362V71.5044C28.3516 72.3304 28.988 73 29.7732 73H34.1277C34.9128 73 35.5493 72.3304 35.5493 71.5044V34.2362C35.5493 33.4102 34.9128 32.7406 34.1277 32.7406Z"
          fill="url(#paint2_linear)"/>
    <path d="M47.8035 24.7897H43.449C42.6638 24.7897 42.0273 25.4593 42.0273 26.2853V71.5044C42.0273 72.3304 42.6638 73 43.449 73H47.8035C48.5886 73 49.2251 72.3304 49.2251 71.5044V26.2853C49.2251 25.4593 48.5886 24.7897 47.8035 24.7897Z"
          fill="url(#paint3_linear)"/>
    <path d="M61.4793 10.907H57.1247C56.3396 10.907 55.7031 11.5766 55.7031 12.4026V71.5043C55.7031 72.3303 56.3396 72.9999 57.1247 72.9999H61.4793C62.2644 72.9999 62.9009 72.3303 62.9009 71.5043V12.4026C62.9009 11.5766 62.2644 10.907 61.4793 10.907Z"
          fill="url(#paint4_linear)"/>
    <path d="M7.73609 52.0499H3.38158C2.59644 52.0499 1.95996 52.7195 1.95996 53.5455V70.4947C1.95996 71.3207 2.59644 71.9903 3.38158 71.9903H7.73609C8.52123 71.9903 9.15771 71.3207 9.15771 70.4947V53.5455C9.15771 52.7195 8.52123 52.0499 7.73609 52.0499Z"
          stroke="#1A1919" stroke-width="2" stroke-miterlimit="10"/>
    <path d="M21.4119 40.0605H17.0574C16.2722 40.0605 15.6357 40.7301 15.6357 41.5561V70.4948C15.6357 71.3208 16.2722 71.9904 17.0574 71.9904H21.4119C22.197 71.9904 22.8335 71.3208 22.8335 70.4948V41.5561C22.8335 40.7301 22.197 40.0605 21.4119 40.0605Z"
          stroke="#1A1919" stroke-width="2" stroke-miterlimit="10"/>
    <path d="M35.0877 31.731H30.7331C29.948 31.731 29.3115 32.4006 29.3115 33.2266V70.4948C29.3115 71.3208 29.948 71.9904 30.7331 71.9904H35.0877C35.8728 71.9904 36.5093 71.3208 36.5093 70.4948V33.2266C36.5093 32.4006 35.8728 31.731 35.0877 31.731Z"
          stroke="#1A1919" stroke-width="2" stroke-miterlimit="10"/>
    <path d="M48.7634 23.78H44.4089C43.6238 23.78 42.9873 24.4496 42.9873 25.2756V70.4948C42.9873 71.3208 43.6238 71.9904 44.4089 71.9904H48.7634C49.5486 71.9904 50.1851 71.3208 50.1851 70.4948V25.2756C50.1851 24.4496 49.5486 23.78 48.7634 23.78Z"
          stroke="#1A1919" stroke-width="2" stroke-miterlimit="10"/>
    <path d="M62.4382 9.89746H58.0837C57.2986 9.89746 56.6621 10.5671 56.6621 11.3931V70.4947C56.6621 71.3207 57.2986 71.9903 58.0837 71.9903H62.4382C63.2234 71.9903 63.8599 71.3207 63.8599 70.4947V11.3931C63.8599 10.5671 63.2234 9.89746 62.4382 9.89746Z"
          stroke="#1A1919" stroke-width="2" stroke-miterlimit="10"/>
    <path d="M5.49902 44.4145L19.1747 32.425L32.9704 24.2217L46.6462 16.2707L60.3219 2.38818" stroke="#1A1919"
          stroke-width="2" stroke-miterlimit="10"/>
    <path d="M5.13892 46.4337C5.86771 46.4337 6.45851 45.8122 6.45851 45.0455C6.45851 44.2788 5.86771 43.6572 5.13892 43.6572C4.41014 43.6572 3.81934 44.2788 3.81934 45.0455C3.81934 45.8122 4.41014 46.4337 5.13892 46.4337Z"
          fill="#FAFAFA"/>
    <path d="M18.8147 34.4444C19.5435 34.4444 20.1343 33.8228 20.1343 33.0561C20.1343 32.2894 19.5435 31.6678 18.8147 31.6678C18.0859 31.6678 17.4951 32.2894 17.4951 33.0561C17.4951 33.8228 18.0859 34.4444 18.8147 34.4444Z"
          fill="#FAFAFA"/>
    <path d="M32.6106 26.241C33.3394 26.241 33.9302 25.6194 33.9302 24.8527C33.9302 24.086 33.3394 23.4645 32.6106 23.4645C31.8818 23.4645 31.291 24.086 31.291 24.8527C31.291 25.6194 31.8818 26.241 32.6106 26.241Z"
          fill="#FAFAFA"/>
    <path d="M46.2854 18.2901C47.0142 18.2901 47.605 17.6685 47.605 16.9018C47.605 16.1351 47.0142 15.5135 46.2854 15.5135C45.5566 15.5135 44.9658 16.1351 44.9658 16.9018C44.9658 17.6685 45.5566 18.2901 46.2854 18.2901Z"
          fill="#FAFAFA"/>
    <path d="M59.9612 4.40761C60.69 4.40761 61.2808 3.78607 61.2808 3.01936C61.2808 2.25265 60.69 1.6311 59.9612 1.6311C59.2324 1.6311 58.6416 2.25265 58.6416 3.01936C58.6416 3.78607 59.2324 4.40761 59.9612 4.40761Z"
          fill="#FAFAFA"/>
    <path d="M5.4983 45.8028C6.22709 45.8028 6.81789 45.1812 6.81789 44.4145C6.81789 43.6478 6.22709 43.0262 5.4983 43.0262C4.76951 43.0262 4.17871 43.6478 4.17871 44.4145C4.17871 45.1812 4.76951 45.8028 5.4983 45.8028Z"
          stroke="#1A1919" stroke-width="2" stroke-miterlimit="10"/>
    <path d="M19.1741 33.8134C19.9029 33.8134 20.4937 33.1918 20.4937 32.4251C20.4937 31.6584 19.9029 31.0369 19.1741 31.0369C18.4453 31.0369 17.8545 31.6584 17.8545 32.4251C17.8545 33.1918 18.4453 33.8134 19.1741 33.8134Z"
          stroke="#1A1919" stroke-width="2" stroke-miterlimit="10"/>
    <path d="M32.97 25.61C33.6988 25.61 34.2896 24.9885 34.2896 24.2218C34.2896 23.455 33.6988 22.8335 32.97 22.8335C32.2412 22.8335 31.6504 23.455 31.6504 24.2218C31.6504 24.9885 32.2412 25.61 32.97 25.61Z"
          stroke="#1A1919" stroke-width="2" stroke-miterlimit="10"/>
    <path d="M46.6458 17.6591C47.3745 17.6591 47.9653 17.0375 47.9653 16.2708C47.9653 15.5041 47.3745 14.8826 46.6458 14.8826C45.917 14.8826 45.3262 15.5041 45.3262 16.2708C45.3262 17.0375 45.917 17.6591 46.6458 17.6591Z"
          stroke="#1A1919" stroke-width="2" stroke-miterlimit="10"/>
    <path d="M60.3215 3.77651C61.0503 3.77651 61.6411 3.15497 61.6411 2.38826C61.6411 1.62154 61.0503 1 60.3215 1C59.5928 1 59.002 1.62154 59.002 2.38826C59.002 3.15497 59.5928 3.77651 60.3215 3.77651Z"
          stroke="#1A1919" stroke-width="2" stroke-miterlimit="10"/>
    <defs>
        <linearGradient id="paint0_linear" x1="-4.28032" y1="53.0596" x2="9.96594" y2="58.2398"
                        gradientUnits="userSpaceOnUse">
            <stop stop-color="#F12711"/>
            <stop offset="1" stop-color="#F5AF19"/>
        </linearGradient>
        <linearGradient id="paint1_linear" x1="9.39546" y1="41.0701" x2="24.7344" y2="44.5532"
                        gradientUnits="userSpaceOnUse">
            <stop stop-color="#F12711"/>
            <stop offset="1" stop-color="#F5AF19"/>
        </linearGradient>
        <linearGradient id="paint2_linear" x1="23.0712" y1="32.7406" x2="38.6944" y2="35.5543"
                        gradientUnits="userSpaceOnUse">
            <stop stop-color="#F12711"/>
            <stop offset="1" stop-color="#F5AF19"/>
        </linearGradient>
        <linearGradient id="paint3_linear" x1="36.747" y1="24.7897" x2="52.5201" y2="27.1619"
                        gradientUnits="userSpaceOnUse">
            <stop stop-color="#F12711"/>
            <stop offset="1" stop-color="#F5AF19"/>
        </linearGradient>
        <linearGradient id="paint4_linear" x1="50.4228" y1="10.907" x2="66.3357" y2="12.7652"
                        gradientUnits="userSpaceOnUse">
            <stop stop-color="#F12711"/>
            <stop offset="1" stop-color="#F5AF19"/>
        </linearGradient>
    </defs>
</svg>
