<svg width="28" height="22" viewBox="0 0 28 22" fill="none" xmlns="http://www.w3.org/2000/svg">
    <rect x="4" y="4" width="21" height="12" fill="#E58E37"/>
    <path d="M23 18.5H20.75V18.9688C20.75 19.1562 20.6094 19.25 20.4688 19.25H3.03125C2.84375 19.25 2.75 19.1562 2.75 18.9688V7.53125C2.75 7.39062 2.84375 7.25 3.03125 7.25H3.5V5H2.75C1.48438 5 0.5 6.03125 0.5 7.25V19.25C0.5 20.5156 1.48438 21.5 2.75 21.5H20.75C21.9688 21.5 23 20.5156 23 19.25V18.5ZM24.9688 2.75C25.1094 2.75 25.25 2.89062 25.25 3.03125V14.4688C25.25 14.6562 25.1094 14.75 24.9688 14.75H7.53125C7.34375 14.75 7.25 14.6562 7.25 14.4688V3.03125C7.25 2.89062 7.34375 2.75 7.53125 2.75H24.9688ZM25.25 0.5H7.25C5.98438 0.5 5 1.53125 5 2.75V14.75C5 16.0156 5.98438 17 7.25 17H25.25C26.4688 17 27.5 16.0156 27.5 14.75V2.75C27.5 1.53125 26.4688 0.5 25.25 0.5ZM12.875 5.75C12.875 4.71875 12.0312 3.875 11 3.875C9.92188 3.875 9.125 4.71875 9.125 5.75C9.125 6.82812 9.92188 7.625 11 7.625C12.0312 7.625 12.875 6.82812 12.875 5.75ZM9.5 10.25V12.5H23V8.75L19.625 5.42188C19.3906 5.1875 19.0625 5.1875 18.8281 5.42188L14 10.25L12.125 8.42188C11.8906 8.1875 11.5625 8.1875 11.3281 8.42188L9.5 10.25Z"
          fill="black"/>
</svg>
