<svg width="32" height="32" viewBox="0 0 32 32" fill="none" xmlns="http://www.w3.org/2000/svg">
    <path d="M29 18.3333C29 24.9608 21.6274 29 15 29C8.37258 29 1 24.9608 1 18.3333C1 11.7059 8.37258 7 15 7C21.6274 7 29 11.7059 29 18.3333Z"
          fill="url(#paint0_linear)"/>
    <path d="M23.0104 10.5H9.02668C8.46483 10.5 8.02784 11 8.02784 11.5V12.5C8.02784 13.0625 8.46483 13.5 9.02668 13.5H23.0104C23.5099 13.5 24.0093 13.0625 24.0093 12.5V11.5C24.0093 11 23.5099 10.5 23.0104 10.5ZM17.0174 16.5H9.02668C8.46483 16.5 8.02784 17 8.02784 17.5V18.5C8.02784 19.0625 8.46483 19.5 9.02668 19.5H17.0174C17.5168 19.5 18.0162 19.0625 18.0162 18.5V17.5C18.0162 17 17.5168 16.5 17.0174 16.5ZM16.0186 2C7.15385 2 0.0371177 7.875 0.0371177 15C0.0371177 18 1.22324 20.75 3.28335 22.9375C2.40936 25.375 0.47411 27.5 0.411683 27.5C-0.0253098 27.9375 -0.0877373 28.5625 0.0995452 29.125C0.349255 29.6875 0.911103 30 1.53538 30C5.34346 30 8.4024 28.4375 10.2128 27.125C12.0232 27.6875 13.9585 28 16.0186 28C24.8208 28 32 22.1875 32 15C32 7.875 24.8208 2 16.0186 2ZM16.0186 25C14.333 25 12.6475 24.75 11.0868 24.25L9.65095 23.8125L8.46483 24.6875C7.59085 25.3125 6.3423 26 4.84404 26.5C5.34346 25.75 5.78045 24.875 6.09259 24L6.77929 22.25L5.46831 20.875C4.34462 19.6875 3.03364 17.6875 3.03364 15C3.03364 9.5 8.8394 5 16.0186 5C23.1353 5 29.0035 9.5 29.0035 15C29.0035 20.5625 23.1353 25 16.0186 25Z"
          fill="#1A1919"/>
    <circle cx="26" cy="6" r="6" fill="#37E58E"/>
    <defs>
        <linearGradient id="paint0_linear" x1="-19.541" y1="7" x2="4.19312" y2="37.4291" gradientUnits="userSpaceOnUse">
            <stop stop-color="#F12711"/>
            <stop offset="1" stop-color="#F5AF19"/>
        </linearGradient>
    </defs>
</svg>
