<svg width="24" height="24" xmlns="http://www.w3.org/2000/svg" xmlns:svg="http://www.w3.org/2000/svg">
    <defs>
        <linearGradient id="paint0_linear" x1="-4.33372" x2="-3.46714" y1="-0.05357" y2="2.23792">
            <stop stop-color="#F12711"/>
            <stop offset="1" stop-color="#F5AF19"/>
        </linearGradient>
    </defs>
    <g class="layer">
        <title>Layer 1</title>
        <path d="m12,12c1.9141,0 3.5,-1.55859 3.5,-3.5c0,-1.91406 -1.5859,-3.5 -3.5,-3.5c-1.94141,0 -3.5,1.58594 -3.5,3.5c0,1.94141 1.55859,3.5 3.5,3.5zm2.4336,0.875l-0.4648,0c-0.6016,0.3008 -1.25786,0.4375 -1.9688,0.4375c-0.71094,0 -1.39453,-0.1367 -1.99609,-0.4375l-0.46485,0c-2.02344,0 -3.66406,1.668 -3.66406,3.6914l0,1.1211c0,0.7383 0.57422,1.3125 1.3125,1.3125l9.625,0c0.7109,0 1.3125,-0.5742 1.3125,-1.3125l0,-1.1211c0,-2.0234 -1.668,-3.6914 -3.6914,-3.6914z" fill="url(#paint0_linear)" id="svg_1"/>
        <path d="m14.7812,13.5c-0.9062,0 -1.3124,0.5 -2.7812,0.5c-1.5,0 -1.9062,-0.5 -2.8125,-0.5c-2.3125,0 -4.1875,1.9062 -4.1875,4.2188l0,0.7812c0,0.8438 0.65625,1.5 1.5,1.5l11,0c0.8125,0 1.5,-0.6562 1.5,-1.5l0,-0.7812c0,-2.3126 -1.9062,-4.2188 -4.2188,-4.2188zm2.7188,5l-11,0l0,-0.7812c0,-1.5 1.1875,-2.7188 2.6875,-2.7188c0.46875,0 1.1875,0.5 2.8125,0.5c1.5938,0 2.3125,-0.5 2.7812,-0.5c1.5,0 2.7188,1.2188 2.7188,2.7188l0,0.7812zm-5.5,-5.5c2.4688,0 4.5,-2 4.5,-4.5c0,-2.46875 -2.0312,-4.5 -4.5,-4.5c-2.5,0 -4.5,2.03125 -4.5,4.5c0,2.5 2,4.5 4.5,4.5zm0,-7.5c1.625,0 3,1.375 3,3c0,1.6562 -1.375,3 -3,3c-1.6562,0 -3,-1.3438 -3,-3c0,-1.625 1.3438,-3 3,-3z" fill="#000000" id="svg_2"/>
    </g>
</svg>
