<svg width="24" height="22" viewBox="0 0 24 22" fill="none" xmlns="http://www.w3.org/2000/svg">
    <circle cx="12" cy="13" r="4" fill="#E58E37"/>
    <path d="M16.0312 5.75H21.75V19.25H2.25V5.75H7.92188L9.04688 2.75H14.9062L16.0312 5.75ZM15.1875 0.5H9.04688C8.10938 0.5 7.26562 1.10938 6.9375 2L6.375 3.5H2.25C0.984375 3.5 0 4.53125 0 5.75V19.25C0 20.5156 0.984375 21.5 2.25 21.5H21.75C22.9688 21.5 24 20.5156 24 19.25V5.75C24 4.53125 22.9688 3.5 21.75 3.5H17.625L16.9219 1.71875C16.6406 1.01562 15.9844 0.5 15.1875 0.5ZM12 18.125C15.0938 18.125 17.625 15.6406 17.625 12.5C17.625 9.40625 15.0938 6.875 12 6.875C8.85938 6.875 6.375 9.40625 6.375 12.5C6.375 15.6406 8.85938 18.125 12 18.125ZM12 9.125C13.8281 9.125 15.375 10.6719 15.375 12.5C15.375 14.375 13.8281 15.875 12 15.875C10.125 15.875 8.625 14.375 8.625 12.5C8.625 10.6719 10.125 9.125 12 9.125Z"
          fill="black"/>
    <rect x="18" y="7" width="2" height="2" rx="0.2" fill="#E58E37" stroke="#1A1919" stroke-width="0.5"/>
</svg>
