<svg width="24" height="24" viewBox="0 0 24 24" fill="none" xmlns="http://www.w3.org/2000/svg">
    <path d="M8.5 14.5L7 17.5L5 15L5.5 13.5H8L8.5 14.5Z" fill="url(#paint0_linear)"/>
    <path d="M19 7L17 10L15 7.5L15.5 6L18 5.5L19 7Z" fill="url(#paint1_linear)"/>
    <path d="M17.25 14.5H14.25C13.5312 14.5 13 13.9688 13 13.25C13 12.5625 13.5312 12 14.25 12H17C17 12 20 8.65625 20 7C20 5.34375 18.6562 4 17 4C15.3438 4 14 5.34375 14 7C14 7.9375 14.9375 9.40625 15.75 10.5H14.25C12.7188 10.5 11.5 11.75 11.5 13.25C11.5 14.7812 12.7188 16 14.25 16H17.25C17.9375 16 18.5 16.5625 18.5 17.25C18.5 17.9688 17.9375 18.5 17.25 18.5H8.21875C9.03125 17.4062 10 15.9375 10 15C10 13.3438 8.65625 12 7 12C5.34375 12 4 13.3438 4 15C4 16.6562 7 20 7 20H17.25C18.75 20 20 18.7812 20 17.25C20 15.75 18.75 14.5 17.25 14.5ZM15.5 7C15.5 6.1875 16.1562 5.5 17 5.5C17.8125 5.5 18.5 6.1875 18.5 7C18.4688 7.4375 17.8438 8.53125 17 9.65625C16.125 8.53125 15.5 7.4375 15.5 7ZM7 17.6562C6.125 16.5312 5.5 15.4375 5.5 15C5.5 14.1875 6.15625 13.5 7 13.5C7.8125 13.5 8.5 14.1875 8.5 15C8.46875 15.4375 7.84375 16.5312 7 17.6562ZM7 14.5C6.71875 14.5 6.5 14.75 6.5 15C6.5 15.2812 6.71875 15.5 7 15.5C7.25 15.5 7.5 15.2812 7.5 15C7.5 14.75 7.25 14.5 7 14.5ZM17.5 7C17.5 6.75 17.25 6.5 17 6.5C16.7188 6.5 16.5 6.75 16.5 7C16.5 7.28125 16.7188 7.5 17 7.5C17.25 7.5 17.5 7.28125 17.5 7Z"
          fill="#1A1919"/>
    <defs>
        <linearGradient id="paint0_linear" x1="2.43238" y1="13.5" x2="6.84638" y2="17.3907"
                        gradientUnits="userSpaceOnUse">
            <stop stop-color="#F12711"/>
            <stop offset="1" stop-color="#F5AF19"/>
        </linearGradient>
        <linearGradient id="paint1_linear" x1="12.0656" y1="5.5" x2="17.0405" y2="9.95472"
                        gradientUnits="userSpaceOnUse">
            <stop stop-color="#F12711"/>
            <stop offset="1" stop-color="#F5AF19"/>
        </linearGradient>
    </defs>
</svg>
