<svg width="24" height="24" viewBox="0 0 24 24" fill="none" xmlns="http://www.w3.org/2000/svg">
    <circle cx="14" cy="11.5" r="6.5" fill="#377DE5"/>
    <path d="M12.5938 11.625L10.3438 10.9688C10.0625 10.875 9.84375 10.5625 9.84375 10.25C9.84375 9.84375 10.1562 9.5 10.5 9.5H11.9062C12.125 9.5 12.3438 9.5625 12.5312 9.6875C12.7188 9.8125 12.9688 9.78125 13.125 9.625L13.5 9.28125C13.75 9.0625 13.7188 8.6875 13.4375 8.5C13 8.1875 12.5 8.03125 12 8.03125V7.5C12 7.25 11.7812 7 11.5 7H11C10.7188 7 10.5 7.25 10.5 7.5V8C9.3125 8.03125 8.375 9.03125 8.375 10.25C8.375 11.2188 9 12.125 9.90625 12.375L12.1562 13.0625C12.4375 13.1562 12.625 13.4375 12.625 13.7812C12.625 14.1875 12.3438 14.5 11.9688 14.5H10.5625C10.3438 14.5 10.1562 14.4688 9.96875 14.3438C9.75 14.2188 9.5 14.25 9.34375 14.4062L8.96875 14.75C8.71875 14.9688 8.78125 15.3438 9.03125 15.5312C9.46875 15.8125 9.96875 16 10.5 16V16.5C10.5 16.7812 10.7188 17 11 17H11.5C11.75 17 12 16.7812 12 16.5V16C13.1562 16 14.125 15 14.125 13.7812C14.125 12.8125 13.5 11.9062 12.5938 11.625ZM11.25 4.25C6.96875 4.25 3.5 7.71875 3.5 12C3.5 16.2812 6.96875 19.75 11.25 19.75C15.5312 19.75 19 16.2812 19 12C19 7.71875 15.5312 4.25 11.25 4.25ZM11.25 18.25C7.78125 18.25 5 15.4688 5 12C5 8.5625 7.78125 5.75 11.25 5.75C14.6875 5.75 17.5 8.5625 17.5 12C17.5 15.4688 14.6875 18.25 11.25 18.25Z"
          fill="#FAFAFA"/>
</svg>
