<svg width="18" height="24" viewBox="0 0 18 24" fill="none" xmlns="http://www.w3.org/2000/svg">
    <rect x="4" y="8" width="13" height="16" fill="#E58E37"/>
    <path d="M13.5 11.625C13.5 11.3438 13.2188 11.0625 12.9375 11.0625H5.0625C4.73438 11.0625 4.5 11.3438 4.5 11.625V12.9375C4.5 13.2656 4.73438 13.5 5.0625 13.5H12.9375C13.2188 13.5 13.5 13.2656 13.5 12.9375V11.625ZM12.9375 15H5.0625C4.73438 15 4.5 15.2812 4.5 15.5625V16.875C4.5 17.2031 4.73438 17.4375 5.0625 17.4375H12.9375C13.2188 17.4375 13.5 17.2031 13.5 16.875V15.5625C13.5 15.2812 13.2188 15 12.9375 15ZM18 6.1875C18 5.625 17.7188 5.01562 17.2969 4.59375L13.4062 0.703125C12.9844 0.28125 12.375 0 11.8125 0H2.25C0.984375 0 0 1.03125 0 2.25V21.75C0 23.0156 0.984375 24 2.25 24H15.75C16.9688 24 18 23.0156 18 21.75V6.1875ZM12 2.4375L15.5625 6H12V2.4375ZM15.75 21.75H2.25V2.25H9.75V7.125C9.75 7.78125 10.2188 8.25 10.875 8.25H15.75V21.75Z"
          fill="black"/>
</svg>
