<svg width="26" height="26" viewBox="0 0 26 26" fill="none" xmlns="http://www.w3.org/2000/svg">
    <circle cx="13" cy="13" r="12" stroke="white" stroke-width="0.5"/>
    <path d="M13.1163 14.14V11.908H18.8469C18.9327 12.286 19 12.64 19 13.138C19 16.564 16.6551 19 13.1224 19C9.74286 19 7 16.312 7 13C7 9.688 9.74286 7 13.1224 7C14.7755 7 16.1592 7.594 17.2184 8.566L15.4796 10.222C15.0388 9.814 14.2673 9.334 13.1224 9.334C11.0959 9.334 9.44286 10.984 9.44286 13.006C9.44286 15.028 11.0959 16.678 13.1224 16.678C15.4673 16.678 16.3306 15.088 16.4898 14.146H13.1163V14.14Z" fill="white"/>
</svg>
