<svg width="32" height="32" viewBox="0 0 32 32" fill="none" xmlns="http://www.w3.org/2000/svg">
    <rect x="9" y="11" width="21" height="13" fill="#E58E37"/>
    <path d="M27.25 5.5H4.75C3.48438 5.5 2.5 6.53125 2.5 7.75V24.25C2.5 25.5156 3.48438 26.5 4.75 26.5H27.25C28.4688 26.5 29.5 25.5156 29.5 24.25V7.75C29.5 6.53125 28.4688 5.5 27.25 5.5ZM27.25 24.25H16.7031C16.75 24.0625 16.75 24.4375 16.75 23.2188C16.75 21.7188 15.2969 20.5 13.5625 20.5C13.0938 20.5 12.7188 20.875 11.5 20.875C10.2344 20.875 9.90625 20.5 9.39062 20.5C7.65625 20.5 6.25 21.7188 6.25 23.2188C6.25 24.4375 6.20312 24.0625 6.25 24.25H4.75V10.75H27.25V24.25ZM19.375 20.5H24.625C24.8125 20.5 25 20.3594 25 20.125V19.375C25 19.1875 24.8125 19 24.625 19H19.375C19.1406 19 19 19.1875 19 19.375V20.125C19 20.3594 19.1406 20.5 19.375 20.5ZM19.375 17.5H24.625C24.8125 17.5 25 17.3594 25 17.125V16.375C25 16.1875 24.8125 16 24.625 16H19.375C19.1406 16 19 16.1875 19 16.375V17.125C19 17.3594 19.1406 17.5 19.375 17.5ZM19.375 14.5H24.625C24.8125 14.5 25 14.3594 25 14.125V13.375C25 13.1875 24.8125 13 24.625 13H19.375C19.1406 13 19 13.1875 19 13.375V14.125C19 14.3594 19.1406 14.5 19.375 14.5ZM11.5 19C13.1406 19 14.5 17.6875 14.5 16C14.5 14.3594 13.1406 13 11.5 13C9.8125 13 8.5 14.3594 8.5 16C8.5 17.6875 9.8125 19 11.5 19Z"
          fill="black"/>
</svg>
