<svg width="32" height="32" viewBox="0 0 32 32" fill="none" xmlns="http://www.w3.org/2000/svg">
    <path d="M7.8 23.4865L7 22.6216L2 25.2162L4 30.5H8.5L22 25.2162L29.4 12.2432L31 3.5L25.4 1L19.8 7.91892L22.8 12.2432L19.4 18.2973L11.8 25.2162L9.4 24.3514L7.8 23.4865Z"
          fill="url(#paint0_linear)"/>
    <path d="M29.7509 1.38967L23.8782 0.0751204C22.5037 -0.237869 21.1292 0.450707 20.6294 1.70266L17.8805 8.08764C17.3807 9.2144 17.6931 10.5916 18.6927 11.4053L21.1917 13.4711C19.4424 16.7261 16.6935 19.4178 13.4448 21.2332L11.3831 18.7293C10.5709 17.7277 9.19641 17.4147 8.07185 17.9155L1.69934 20.6072C0.449827 21.1706 -0.237404 22.5477 0.0749738 23.9249L1.38696 29.8091C1.69934 31.1236 2.88638 32 4.19836 32C19.5049 32 32 19.6056 32 4.20658C32 2.89202 31.0629 1.70266 29.7509 1.38967ZM4.32331 28.9953L3.01133 23.3615L9.13393 20.7324L12.6326 24.989C18.8177 22.0469 22.0039 18.8545 24.9403 12.6573L20.6919 9.1518L23.3159 3.01722L29.0012 4.33177C28.9387 17.9155 17.8805 28.9327 4.32331 28.9953Z"
          fill="#1A1919"/>
    <defs>
        <linearGradient id="paint0_linear" x1="-19.2746" y1="1" x2="13.5367" y2="33.4924"
                        gradientUnits="userSpaceOnUse">
            <stop stop-color="#F12711"/>
            <stop offset="1" stop-color="#F5AF19"/>
        </linearGradient>
    </defs>
</svg>
