<svg width="18" height="24" viewBox="0 0 18 24" fill="none" xmlns="http://www.w3.org/2000/svg">
    <path d="M8.5 4.25C4.21875 4.25 0.75 7.75 0.75 12C0.75 16.2812 4.21875 19.75 8.5 19.75C12.75 19.75 16.25 16.2812 16.25 12C16.25 7.75 12.75 4.25 8.5 4.25ZM8.5 5.75C11.9375 5.75 14.75 8.5625 14.75 12C14.75 15.4688 11.9375 18.25 8.5 18.25C5.03125 18.25 2.25 15.4688 2.25 12C2.25 8.5625 5.03125 5.75 8.5 5.75ZM12.875 9.84375L12.1562 9.125C12.0312 8.96875 11.7812 8.96875 11.625 9.125L7.21875 13.5L5.34375 11.625C5.1875 11.4688 4.96875 11.4688 4.8125 11.625L4.09375 12.3125C3.96875 12.4688 3.96875 12.7188 4.09375 12.8438L6.9375 15.7188C7.09375 15.875 7.3125 15.875 7.46875 15.7188L12.875 10.375C13 10.2188 13 9.96875 12.875 9.84375Z"
          fill="#1A1919"/>
</svg>
