<svg width="18" height="24" viewBox="0 0 18 24" fill="none" xmlns="http://www.w3.org/2000/svg">
    <rect x="4" y="3" width="13" height="20" fill="#E58E37"/>
    <path d="M15.75 0H2.25C0.984375 0 0 1.03125 0 2.25V21.75C0 23.0156 0.984375 24 2.25 24H15.75C16.9688 24 18 23.0156 18 21.75V2.25C18 1.03125 16.9688 0 15.75 0ZM15.75 21.75H2.25V2.25H15.75V21.75ZM6.75 5.25H11.25C11.625 5.25 12 4.92188 12 4.5C12 4.125 11.625 3.75 11.25 3.75H6.75C6.32812 3.75 6 4.125 6 4.5C6 4.92188 6.32812 5.25 6.75 5.25ZM9 13.5C10.6406 13.5 12 12.1875 12 10.5C12 8.85938 10.6406 7.5 9 7.5C7.3125 7.5 6 8.85938 6 10.5C6 12.1875 7.3125 13.5 9 13.5ZM4.78125 19.5H13.1719C13.7812 19.5 14.25 19.125 14.25 18.6094V17.7188C14.25 16.2188 12.7969 15 11.0625 15C10.5938 15 10.2188 15.375 9 15.375C7.73438 15.375 7.40625 15 6.89062 15C5.15625 15 3.75 16.2188 3.75 17.7188V18.6094C3.75 19.125 4.21875 19.5 4.78125 19.5Z"
          fill="black"/>
</svg>
