<svg width="46" height="42" viewBox="0 0 46 42" fill="none" xmlns="http://www.w3.org/2000/svg">
    <path d="M24.5 22.6702L36.5 17.3544L36.828 31.7938L25.1735 37.1858L24.5 22.6702Z" fill="url(#paint0_linear)"/>
    <path d="M21.4189 6.89085L6.08462 13.9536C5.41141 14.251 5 14.9201 5 15.6635V33.0601C5 33.8035 5.41141 34.4355 6.08462 34.77L21.4189 41.8327C21.9051 42.0558 22.5035 42.0558 22.9897 41.8327L38.324 34.77C38.9972 34.4726 39.4086 33.8035 39.4086 33.0601V15.6635C39.4086 14.9201 38.9972 14.2881 38.324 13.9536L22.9897 6.89085C22.5035 6.63065 21.9051 6.63065 21.4189 6.89085ZM34.6587 15.3661L22.2043 21.0906L18.0154 19.1577C19.2497 19.6502 18.8382 19.5374 18.0154 19.1577C16.7812 18.6652 15.8462 18.1076 14.6868 17.6336C13.5273 17.1597 9.78728 15.3661 9.78728 15.3661L22.2043 9.60443L34.6587 15.3661ZM7.80505 17.5593C7.80505 17.5593 11.9191 19.486 13.2281 20.0498C14.5372 20.6137 14.3502 20.5238 16.0706 21.3508C17.791 22.1779 20.7831 23.544 20.7831 23.544V38.4501L7.80505 32.4653V17.5593ZM23.6255 38.4501V23.544L36.6036 17.5593V32.4653L23.6255 38.4501Z"
          fill="#1A1919"/>
    <path d="M26.5 8.17278L31 5.27331L41.5 9.62252L38 13.0052L26.5 8.17278Z" fill="url(#paint1_linear)"/>
    <path d="M1.49512 10.1371L6.05029 14.8711C6.1947 15.0212 6.417 15.066 6.6083 14.9837L22.4529 8.16254C22.7589 8.03083 22.8529 7.64243 22.6411 7.38535L18.4457 2.29297C18.303 2.11978 18.0624 2.06287 17.8572 2.15377L1.65287 9.33325C1.33557 9.47384 1.25449 9.887 1.49512 10.1371Z"
          stroke="#1A1919" stroke-width="2.5"/>
    <path d="M25.1966 8.6573L38.2966 14.2115C38.4535 14.278 38.6335 14.26 38.7741 14.1638L44.2454 10.4213C44.5717 10.1982 44.5222 9.70259 44.1583 9.54831L31.0582 3.99414C30.9014 3.92763 30.7214 3.94558 30.5808 4.04178L25.1095 7.78428C24.7832 8.00743 24.8327 8.50302 25.1966 8.6573Z"
          stroke="#1A1919" stroke-width="2.5"/>
    <defs>
        <linearGradient id="paint0_linear" x1="15.4561" y1="17.3544" x2="35.3007" y2="29.7814"
                        gradientUnits="userSpaceOnUse">
            <stop stop-color="#F12711"/>
            <stop offset="1" stop-color="#F5AF19"/>
        </linearGradient>
        <linearGradient id="paint1_linear" x1="15.4959" y1="5.27331" x2="22.471" y2="18.9046"
                        gradientUnits="userSpaceOnUse">
            <stop stop-color="#F12711"/>
            <stop offset="1" stop-color="#F5AF19"/>
        </linearGradient>
    </defs>
</svg>
