<svg width="24" height="24" viewBox="0 0 24 24" fill="none" xmlns="http://www.w3.org/2000/svg">
    <circle cx="14" cy="11.5" r="6.5" fill="url(#paint0_linear)"/>
    <path d="M14.5 8C14.5 5.8125 12.6875 4 10.5 4C8.28125 4 6.5 5.8125 6.5 8H3.5V17.5C3.5 18.9062 4.59375 20 6 20H15C16.375 20 17.5 18.9062 17.5 17.5V8H14.5ZM10.5 5.5C11.875 5.5 13 6.625 13 8H8C8 6.625 9.09375 5.5 10.5 5.5ZM16 17.5C16 18.0625 15.5312 18.5 15 18.5H6C5.4375 18.5 5 18.0625 5 17.5V9.5H6.5V10.75C6.5 11.1875 6.8125 11.5 7.25 11.5C7.65625 11.5 8 11.1875 8 10.75V9.5H13V10.75C13 11.1875 13.3125 11.5 13.75 11.5C14.1562 11.5 14.5 11.1875 14.5 10.75V9.5H16V17.5Z"
          fill="#FAFAFA"/>
    <defs>
        <linearGradient id="paint0_linear" x1="-2.03689" y1="5" x2="12.4226" y2="19.5658"
                        gradientUnits="userSpaceOnUse">
            <stop stop-color="#F12711"/>
            <stop offset="1" stop-color="#F5AF19"/>
        </linearGradient>
    </defs>
</svg>
