<svg width="40" height="44" viewBox="0 0 40 44" fill="none" xmlns="http://www.w3.org/2000/svg">
    <path d="M6 10.5L20.5 3L35 10.5L20.5 17.5L6 10.5Z" fill="url(#paint0_linear)"/>
    <path d="M19.087 0.243222L1.26087 9.04554C0.478261 9.41616 0 10.2501 0 11.1766V32.8581C0 33.7847 0.478261 34.5723 1.26087 34.9892L19.087 43.7915C19.6522 44.0695 20.3478 44.0695 20.913 43.7915L38.7391 34.9892C39.5217 34.6186 40 33.7847 40 32.8581V11.1766C40 10.2501 39.5217 9.46249 38.7391 9.04554L20.913 0.243222C20.3478 -0.081074 19.6522 -0.081074 19.087 0.243222ZM34.4783 10.806L20 17.9405L15.1304 15.5315L21.1304 12.5665C21.9565 12.1495 22.3043 11.1303 21.913 10.2501C21.5217 9.36983 20.5652 8.99921 19.7391 9.41616L11.2609 13.632L5.56522 10.806L20 3.62516L34.4783 10.806ZM3.26087 13.5394L9.56522 16.6433V26.7428C9.56522 27.7157 10.3043 28.5033 11.2174 28.5033C12.1304 28.5033 12.8696 27.7157 12.8696 26.7428V18.2648L18.3478 20.9982V39.5757L3.26087 32.1169V13.5394ZM21.6522 39.5757V20.9982L36.7391 13.5394V32.1169L21.6522 39.5757Z"
          fill="#1A1919"/>
    <path d="M23 20.72L36.5484 14L37 31.28L23.4516 38L23 20.72Z" fill="url(#paint1_linear)"/>
    <defs>
        <linearGradient id="paint0_linear" x1="-15.2746" y1="3" x2="-2.4287" y2="28.8807"
                        gradientUnits="userSpaceOnUse">
            <stop stop-color="#F12711"/>
            <stop offset="1" stop-color="#F5AF19"/>
        </linearGradient>
        <linearGradient id="paint1_linear" x1="12.7295" y1="14" x2="36.0503" y2="27.7038"
                        gradientUnits="userSpaceOnUse">
            <stop stop-color="#F12711"/>
            <stop offset="1" stop-color="#F5AF19"/>
        </linearGradient>
    </defs>
</svg>
