<svg width="28" height="24" viewBox="0 0 28 24" fill="none" xmlns="http://www.w3.org/2000/svg">
    <path d="M25.375 14.0001C25.375 19.6807 18.924 23.1429 13.125 23.1429C7.32601 23.1429 0.875 19.6807 0.875 14.0001C0.875 8.31941 7.32601 4.28577 13.125 4.28577C18.924 4.28577 25.375 8.31941 25.375 14.0001Z" fill="url(#paint0_linear)"/>
    <path d="M20.1341 7.28571H7.89834C7.40673 7.28571 7.02436 7.71429 7.02436 8.14286V9C7.02436 9.48214 7.40673 9.85714 7.89834 9.85714H20.1341C20.5711 9.85714 21.0081 9.48214 21.0081 9V8.14286C21.0081 7.71429 20.5711 7.28571 20.1341 7.28571ZM14.8902 12.4286H7.89834C7.40673 12.4286 7.02436 12.8571 7.02436 13.2857V14.1429C7.02436 14.625 7.40673 15 7.89834 15H14.8902C15.3272 15 15.7642 14.625 15.7642 14.1429V13.2857C15.7642 12.8571 15.3272 12.4286 14.8902 12.4286ZM14.0162 0C6.25962 0 0.032478 5.03571 0.032478 11.1429C0.032478 13.7143 1.07034 16.0714 2.87293 17.9464C2.10819 20.0357 0.414847 21.8571 0.360222 21.8571C-0.0221461 22.2321 -0.0767701 22.7679 0.0871021 23.25C0.305598 23.7321 0.797215 24 1.34346 24C4.67552 24 7.3521 22.6607 8.9362 21.5357C10.5203 22.0179 12.2136 22.2857 14.0162 22.2857C21.7182 22.2857 28 17.3036 28 11.1429C28 5.03571 21.7182 0 14.0162 0ZM14.0162 19.7143C12.5414 19.7143 11.0665 19.5 9.70094 19.0714L8.44458 18.6964L7.40673 19.4464C6.64199 19.9821 5.54951 20.5714 4.23853 21C4.67552 20.3571 5.05789 19.6071 5.33101 18.8571L5.93188 17.3571L4.78477 16.1786C3.80154 15.1607 2.65443 13.4464 2.65443 11.1429C2.65443 6.42857 7.73447 2.57143 14.0162 2.57143C20.2434 2.57143 25.378 6.42857 25.378 11.1429C25.378 15.9107 20.2434 19.7143 14.0162 19.7143Z" fill="#1A1919"/>
    <defs>
        <linearGradient id="paint0_linear" x1="-17.0984" y1="4.28577" x2="3.13924" y2="30.7726" gradientUnits="userSpaceOnUse">
            <stop stop-color="#F12711"/>
            <stop offset="1" stop-color="#F5AF19"/>
        </linearGradient>
    </defs>
</svg>
