<svg width="31" height="26" viewBox="0 0 31 26" fill="none" xmlns="http://www.w3.org/2000/svg">
    <path d="M29.922 13.9844L29.3126 9.20313C29.1251 7.65625 28.047 6.4375 26.5939 6.01563L18.7657 3.95313C17.3126 3.53125 15.7189 4.09375 14.7814 5.3125L11.922 9.15625C10.5626 9.625 9.48449 10.75 9.10949 12.2031L7.42199 18.3438C7.28136 18.9531 7.65636 19.5625 8.21886 19.75L8.96886 19.9375C9.57824 20.0781 10.1876 19.75 10.3282 19.1406L10.6095 18.0625L26.547 22.3281L26.2657 23.4063C26.1251 24.0156 26.4532 24.625 27.0626 24.8125L27.8126 25C28.3751 25.1406 29.0314 24.8125 29.172 24.2031L30.4376 19.4688L30.8126 18.0156C31.2345 16.5625 30.8126 15.0625 29.922 13.9844ZM16.6095 6.67188C16.9845 6.15625 17.5939 5.96875 18.2032 6.10938L25.9845 8.21875C26.5939 8.35938 27.0157 8.875 27.1095 9.48438L27.4845 12.4844L14.7814 9.0625L16.6095 6.67188ZM28.6564 17.4531L28.047 19.6094C27.9532 20.0313 27.5314 20.2656 27.1564 20.1719L11.2189 15.8594C10.797 15.7656 10.5626 15.3438 10.7032 14.9688L11.2657 12.8125C11.5939 11.5938 12.8126 10.8906 14.0314 11.2188L27.0626 14.6875C28.2345 15.0156 28.9845 16.2344 28.6564 17.4531Z"
          fill="black"/>
    <path d="M26.0964 15.3368C25.8285 15.2628 25.5181 15.2862 25.2171 15.3603C24.9115 15.4355 24.5939 15.5682 24.3012 15.7364C24.0087 15.9044 23.7334 16.1122 23.5159 16.3425C23.3029 16.5683 23.1309 16.831 23.0695 17.1126C22.9941 17.3918 23.045 17.6407 23.1932 17.8461C23.3332 18.0405 23.5474 18.1786 23.7684 18.2828C24.1242 18.4505 24.5791 18.5648 24.9649 18.6617C25.0529 18.6838 25.1372 18.705 25.216 18.7257C25.6944 18.8582 26.1628 18.8083 26.5495 18.5833C26.9363 18.3583 27.2188 17.9714 27.3507 17.4715C27.4832 16.9931 27.4333 16.5247 27.2082 16.138C26.9832 15.7512 26.5963 15.4687 26.0964 15.3368Z"
          fill="#E58E37" stroke="#1A1919" stroke-width="0.5"/>
    <path d="M12.3841 13.4487L12.3841 13.4487L12.3832 13.452C12.252 13.9505 12.3005 14.4282 12.5176 14.8203C12.735 15.2131 13.1097 15.4983 13.5893 15.6315L13.5893 15.6315L13.5926 15.6324C13.6839 15.6564 13.7825 15.684 13.8858 15.7129C14.2595 15.8175 14.6954 15.9395 15.0753 15.9736C15.3207 15.9956 15.5772 15.9855 15.7983 15.8906C16.034 15.7895 16.209 15.6003 16.2877 15.3169L16.2877 15.3169L16.2886 15.3136C16.3615 15.0366 16.3393 14.7219 16.2648 14.4159C16.1896 14.1071 16.0568 13.7893 15.8886 13.4966C15.7205 13.2038 15.513 12.9292 15.2838 12.7096C15.0567 12.4921 14.795 12.3158 14.5167 12.2426C14.019 12.1116 13.5511 12.1592 13.1685 12.3789C12.7861 12.5984 12.5159 12.9742 12.3841 13.4487Z"
          fill="#E58E37" stroke="#1A1919" stroke-width="0.5"/>
    <path d="M8.23254 5.76539L8.23268 5.76541L8.23344 5.75701L8.26046 5.45985L8.42935 5.72725L8.43813 5.74116L8.44866 5.7538C8.70923 6.06649 9.17829 6.38875 9.62912 6.44966C10.1368 6.55831 10.631 6.38542 11.0037 6.06728L13.4384 4.10074L13.4397 4.09974C14.0626 3.59009 14.1236 2.73079 13.6641 2.15633L13.6595 2.15066L13.6547 2.14526C13.1568 1.59207 12.3052 1.46079 11.7189 1.92979L11.7189 1.92977L11.7165 1.93174L10.103 3.25561L8.99117 1.56721C8.60718 0.965423 7.84574 0.638429 7.13138 0.803282L7.12264 0.805298L7.11407 0.807935C6.42435 1.02016 5.87086 1.61028 5.81356 2.33724L5.607 4.40283L3.58433 3.99004C2.86283 3.82503 2.15001 4.16135 1.77095 4.80739C1.38785 5.41348 1.44168 6.23391 1.93395 6.78631L3.21241 8.39469L1.51884 9.50996L1.51767 9.51074C0.873997 9.93986 0.587425 10.6561 0.805411 11.3775C0.97145 12.0802 1.5685 12.6296 2.29045 12.6865L4.35604 12.8931L3.94325 14.9158C3.76846 15.6817 4.30367 16.3591 5.022 16.5249L5.04975 16.5313H5.07822H5.26572C5.92677 16.5313 6.51787 16.1371 6.63668 15.4355L7.24482 12.3481C7.35301 11.8571 7.24372 11.3641 6.96915 10.9797L6.96921 10.9797L6.96572 10.975C6.63935 10.5398 6.19927 10.3209 5.7152 10.2672L5.71521 10.2671L5.71023 10.2667L5.41306 10.2396L5.68047 10.0708L5.68648 10.067L5.69228 10.0628C6.05893 9.80092 6.3261 9.38875 6.39658 8.91886C6.42759 8.8607 6.43926 8.80294 6.44485 8.76388C6.45328 8.70485 6.45324 8.6424 6.45322 8.60008L6.45322 8.59375C6.45322 8.41722 6.41033 8.21303 6.34581 8.02593C6.28127 7.83877 6.18745 7.64651 6.07031 7.50008L6.07033 7.50007L6.06808 7.49733L5.85154 7.23439L6.15284 7.29178C6.64351 7.39967 7.13622 7.29036 7.5204 7.01594C7.91615 6.73326 8.17879 6.19534 8.23254 5.76539Z"
          fill="#E58E37" stroke="#1A1919" stroke-width="0.5"/>
</svg>
