<svg width="17" height="24" viewBox="0 0 17 24" fill="none" xmlns="http://www.w3.org/2000/svg">
    <circle cx="10.5" cy="11.5" r="6.5" fill="#377DE5"/>
    <path d="M9.09375 11.625L6.84375 10.9688C6.5625 10.875 6.34375 10.5625 6.34375 10.25C6.34375 9.84375 6.65625 9.5 7 9.5H8.40625C8.625 9.5 8.84375 9.5625 9.03125 9.6875C9.21875 9.8125 9.46875 9.78125 9.625 9.625L10 9.28125C10.25 9.0625 10.2188 8.6875 9.9375 8.5C9.5 8.1875 9 8.03125 8.5 8.03125V7.5C8.5 7.25 8.28125 7 8 7H7.5C7.21875 7 7 7.25 7 7.5V8C5.8125 8.03125 4.875 9.03125 4.875 10.25C4.875 11.2188 5.5 12.125 6.40625 12.375L8.65625 13.0625C8.9375 13.1562 9.125 13.4375 9.125 13.7812C9.125 14.1875 8.84375 14.5 8.46875 14.5H7.0625C6.84375 14.5 6.65625 14.4688 6.46875 14.3438C6.25 14.2188 6 14.25 5.84375 14.4062L5.46875 14.75C5.21875 14.9688 5.28125 15.3438 5.53125 15.5312C5.96875 15.8125 6.46875 16 7 16V16.5C7 16.7812 7.21875 17 7.5 17H8C8.25 17 8.5 16.7812 8.5 16.5V16C9.65625 16 10.625 15 10.625 13.7812C10.625 12.8125 10 11.9062 9.09375 11.625ZM7.75 4.25C3.46875 4.25 0 7.71875 0 12C0 16.2812 3.46875 19.75 7.75 19.75C12.0312 19.75 15.5 16.2812 15.5 12C15.5 7.71875 12.0312 4.25 7.75 4.25ZM7.75 18.25C4.28125 18.25 1.5 15.4688 1.5 12C1.5 8.5625 4.28125 5.75 7.75 5.75C11.1875 5.75 14 8.5625 14 12C14 15.4688 11.1875 18.25 7.75 18.25Z"
          fill="#1A1919"/>
</svg>
