<svg width="335" height="276" viewBox="0 0 335 276" fill="none" xmlns="http://www.w3.org/2000/svg">
    <path d="M154.441 212.333L154.44 211.625C155.996 211.625 157.576 211.596 159.135 211.54L159.166 212.247C157.597 212.304 156.007 212.333 154.441 212.333ZM149.716 212.251C148.152 212.196 146.565 212.111 144.999 212L145.06 211.294C146.616 211.405 148.193 211.489 149.747 211.544L149.716 212.251ZM163.883 211.99L163.821 211.285C165.374 211.172 166.945 211.03 168.492 210.861L168.586 211.564C167.029 211.734 165.447 211.877 163.883 211.99V211.99ZM140.296 211.578C138.736 211.409 137.161 211.209 135.616 210.985L135.74 210.286C137.275 210.509 138.839 210.707 140.389 210.875L140.296 211.578ZM173.265 210.966L173.14 210.267C174.675 210.043 176.228 209.786 177.758 209.505L177.914 210.198C176.374 210.482 174.81 210.74 173.265 210.966V210.966ZM130.966 210.222C129.426 209.94 127.874 209.626 126.354 209.289L126.54 208.601C128.05 208.936 129.591 209.248 131.121 209.528L130.966 210.222ZM182.525 209.26L182.338 208.573C183.853 208.236 185.379 207.867 186.873 207.475L187.091 208.155C185.586 208.549 184.05 208.921 182.525 209.261V209.26ZM121.787 208.188C120.278 207.794 118.759 207.368 117.273 206.921L117.52 206.249C118.997 206.693 120.505 207.117 122.004 207.508L121.787 208.188ZM191.602 206.882L191.354 206.211C192.831 205.765 194.319 205.285 195.776 204.784L196.054 205.445C194.587 205.95 193.089 206.433 191.602 206.882V206.882ZM112.808 205.484C111.34 204.981 109.861 204.443 108.413 203.885L108.72 203.234C110.158 203.788 111.627 204.322 113.085 204.822L112.808 205.484ZM200.425 203.852L200.118 203.2C201.548 202.648 202.984 202.062 204.386 201.459L204.722 202.098C203.311 202.705 201.865 203.295 200.425 203.852V203.852ZM104.094 202.126C102.673 201.516 101.248 200.872 99.8589 200.211L100.223 199.585C101.603 200.241 103.018 200.881 104.43 201.487L104.094 202.126ZM208.94 200.189L208.576 199.563C209.954 198.907 211.334 198.217 212.679 197.514L213.071 198.126C211.717 198.835 210.328 199.529 208.94 200.189V200.189ZM95.7141 198.144C94.3504 197.431 92.9885 196.685 91.6659 195.927L92.0847 195.329C93.3983 196.082 94.7512 196.823 96.1057 197.531L95.7141 198.144ZM217.107 195.915L216.688 195.317C218 194.565 219.316 193.777 220.598 192.975L221.043 193.557C219.752 194.365 218.428 195.158 217.107 195.915L217.107 195.915ZM87.7207 193.566C86.4268 192.757 85.1361 191.915 83.8844 191.063L84.3548 190.498C85.5983 191.344 86.8803 192.18 88.1655 192.984L87.7207 193.566ZM224.873 191.059L224.402 190.493C225.643 189.649 226.885 188.768 228.094 187.875L228.589 188.423C227.372 189.322 226.121 190.209 224.873 191.059V191.059ZM80.163 188.424C78.9481 187.526 77.7368 186.593 76.5624 185.652L77.0813 185.122C78.248 186.057 79.4514 186.984 80.6582 187.875L80.163 188.424ZM232.187 185.654L231.668 185.124C232.834 184.19 233.994 183.221 235.118 182.245L235.66 182.756C234.529 183.738 233.361 184.713 232.187 185.654L232.187 185.654ZM73.088 182.753C71.9593 181.772 70.8347 180.755 69.7455 179.731L70.3095 179.24C71.3915 180.258 72.5087 181.268 73.6301 182.242L73.088 182.753ZM239.002 179.734L238.438 179.243C239.517 178.229 240.589 177.179 241.624 176.123L242.21 176.593C241.167 177.656 240.088 178.712 239.002 179.734V179.734ZM66.5399 176.592C65.4966 175.528 64.4659 174.434 63.4761 173.339L64.0821 172.891C65.065 173.978 66.089 175.066 67.1252 176.122L66.5399 176.592ZM245.276 173.338L244.67 172.89C245.659 171.797 246.634 170.672 247.571 169.548L248.196 169.974C247.253 171.105 246.271 172.237 245.276 173.338ZM60.5597 169.979C59.6167 168.846 58.6866 167.682 57.7952 166.517L58.4386 166.114C59.3241 167.271 60.2479 168.428 61.1848 169.553L60.5597 169.979ZM250.965 166.505L250.321 166.103C251.21 164.94 252.083 163.748 252.917 162.559L253.578 162.938C252.739 164.134 251.859 165.335 250.965 166.505ZM55.1869 162.958C54.3484 161.762 53.525 160.534 52.7395 159.308L53.4165 158.953C54.1967 160.171 55.0148 161.391 55.8475 162.579L55.1869 162.958ZM256.031 159.277L255.354 158.923C256.137 157.698 256.902 156.446 257.627 155.2L258.319 155.529C257.59 156.784 256.82 158.045 256.031 159.277ZM50.4573 155.572C49.7283 154.32 49.0172 153.037 48.344 151.758L49.0505 151.454C49.7193 152.724 50.4256 153.999 51.1496 155.243L50.4573 155.572ZM260.438 151.7L259.731 151.396C260.401 150.121 261.052 148.816 261.665 147.517L262.385 147.795C261.768 149.103 261.113 150.417 260.438 151.7ZM46.4032 147.873C45.7869 146.569 45.1932 145.239 44.6382 143.92L45.3695 143.668C45.9208 144.978 46.5106 146.299 47.1227 147.594L46.4032 147.873ZM264.155 143.82L263.424 143.569C263.978 142.245 264.51 140.895 265.003 139.558L265.745 139.782C265.249 141.129 264.714 142.487 264.155 143.82ZM43.0472 139.894C42.549 138.549 42.0748 137.176 41.6379 135.814L42.3894 135.617C42.8235 136.969 43.2944 138.333 43.7892 139.669L43.0472 139.894ZM267.15 135.7L266.398 135.503C266.83 134.153 267.237 132.773 267.61 131.401L268.37 131.57C267.995 132.951 267.584 134.34 267.15 135.7ZM40.413 131.685C40.037 130.307 39.6876 128.904 39.3739 127.515L40.1407 127.373C40.4521 128.753 40.7993 130.147 41.1725 131.516L40.413 131.685ZM269.403 127.399L268.636 127.258C268.946 125.88 269.228 124.474 269.477 123.081L270.249 123.194C270 124.596 269.715 126.011 269.403 127.399ZM38.5224 123.31C38.2716 121.913 38.0484 120.489 37.8593 119.078L38.6361 118.993C38.8241 120.395 39.0457 121.809 39.295 123.197L38.5224 123.31ZM270.907 118.96L270.13 118.875C270.316 117.474 270.473 116.053 270.596 114.651L271.377 114.707C271.252 116.118 271.095 117.549 270.907 118.96V118.96ZM37.3849 114.825C37.2587 113.412 37.1624 111.976 37.0988 110.558L37.8805 110.53C37.9437 111.938 38.0395 113.364 38.1648 114.768L37.3849 114.825ZM271.658 110.44L270.876 110.412C270.937 109.002 270.968 107.574 270.968 106.167L270.968 105.932H271.751L271.751 106.165C271.751 107.583 271.72 109.02 271.658 110.44ZM37.7825 106.284H37L37.0002 106.165C37.0002 104.785 37.0298 103.386 37.0885 102.011L37.8702 102.038C37.8121 103.405 37.7827 104.794 37.7827 106.167L37.7825 106.284ZM270.865 101.688C270.8 100.283 270.703 98.8565 270.576 97.4496L271.356 97.3918C271.484 98.8083 271.582 100.244 271.647 101.659L270.865 101.688ZM38.1443 97.7995L37.3641 97.7442C37.4872 96.3269 37.6434 94.8958 37.8284 93.4903L38.6055 93.5739C38.4217 94.9701 38.2666 96.3919 38.1443 97.7995ZM270.1 93.2254C269.911 91.8295 269.688 90.4153 269.436 89.0222L270.208 88.908C270.461 90.3104 270.687 91.7341 270.876 93.1397L270.1 93.2254ZM39.2535 89.3687L38.481 89.2567C38.7289 87.8553 39.0119 86.44 39.3223 85.0503L40.0892 85.1903C39.781 86.5708 39.4999 87.9765 39.2535 89.3687L39.2535 89.3687ZM268.584 84.8464C268.27 83.4633 267.921 82.0703 267.547 80.7053L268.307 80.535C268.684 81.909 269.035 83.3118 269.351 84.704L268.584 84.8464ZM41.1106 81.0461L40.3505 80.8781C40.7226 79.5006 41.1314 78.1106 41.5655 76.7465L42.3174 76.9423C41.8862 78.2972 41.4803 79.6779 41.1106 81.0461ZM266.326 76.6055C265.89 75.2537 265.418 73.8905 264.921 72.554L265.663 72.3286C266.163 73.6742 266.639 75.0466 267.077 76.4075L266.326 76.6055ZM43.7071 72.8866L42.9645 72.6633C43.4596 71.3157 43.993 69.9566 44.5499 68.624L45.282 68.8742C44.7287 70.198 44.1988 71.5479 43.7071 72.8866ZM263.336 68.5572C262.78 67.2406 262.188 65.9203 261.578 64.6326L262.297 64.3537C262.912 65.65 263.507 66.9792 264.067 68.3045L263.336 68.5572ZM47.0356 64.9243L46.3153 64.6471C46.9303 63.3395 47.5837 62.0249 48.2571 60.7402L48.9641 61.0433C48.2951 62.3195 47.6463 63.6253 47.0356 64.9243ZM259.645 60.774C258.975 59.5053 258.268 58.2315 257.542 56.9879L258.233 56.6573C258.965 57.9094 259.677 59.1917 260.351 60.4692L259.645 60.774ZM51.0648 57.237L50.3717 56.9084C51.1011 55.6509 51.8695 54.3892 52.6552 53.158L53.333 53.5119C52.5524 54.7347 51.7892 55.9882 51.0648 57.237ZM255.27 53.2803C254.487 52.0619 253.668 50.843 252.835 49.6571L253.495 49.2773C254.334 50.4711 255.159 51.6984 255.947 52.9247L255.27 53.2803ZM55.7652 49.8736L55.1038 49.4952C55.9432 48.2948 56.8211 47.0937 57.7127 45.9254L58.3565 46.3275C57.4708 47.488 56.5991 48.681 55.7652 49.8736ZM250.239 46.1243C249.351 44.9674 248.426 43.811 247.489 42.6878L248.113 42.2614C249.057 43.3922 249.988 44.5561 250.882 45.721L250.239 46.1243ZM61.1028 42.8791L60.4774 42.454C61.4203 41.3188 62.4013 40.1859 63.393 39.0866L63.9994 39.5341C63.0142 40.626 62.0397 41.7514 61.1028 42.8791V42.8791ZM244.588 39.3529C243.601 38.2637 242.575 37.1777 241.541 36.125L242.125 35.6546C243.167 36.7144 244.199 37.8077 245.193 38.9043L244.588 39.3529ZM67.0413 36.2973L66.4556 35.8283C67.4945 34.7666 68.5721 33.7088 69.6588 32.6841L70.2235 33.1741C69.1441 34.1919 68.0735 35.2429 67.0413 36.2973L67.0413 36.2973ZM238.352 33.0089C237.27 31.9927 236.151 30.9839 235.028 30.0104L235.569 29.4993C236.7 30.4794 237.826 31.4949 238.916 32.5179L238.352 33.0089ZM73.5404 30.169L72.9978 29.6589C74.1269 28.6762 75.2943 27.7003 76.4673 26.7578L76.9869 27.2869C75.8216 28.2231 74.662 29.1929 73.5404 30.169ZM231.574 27.1338C230.404 26.1988 229.2 25.2737 227.994 24.3843L228.488 23.8356C229.702 24.7311 230.915 25.6623 232.092 26.6037L231.574 27.1338ZM80.5575 24.5325L80.0615 23.9851C81.2756 23.0857 82.525 22.1977 83.7748 21.3455L84.2459 21.9105C83.0043 22.757 81.7633 23.6393 80.5575 24.5325ZM224.293 21.7662C223.045 20.9188 221.761 20.0837 220.479 19.284L220.923 18.7013C222.214 19.5064 223.506 20.347 224.763 21.2001L224.293 21.7662ZM88.0472 19.4241L87.6013 18.8425C88.8912 18.034 90.2145 17.2396 91.5346 16.4814L91.9542 17.0789C90.6429 17.832 89.3283 18.621 88.0472 19.4241H88.0472ZM216.557 16.9417C215.238 16.188 213.884 15.4486 212.533 14.7441L212.925 14.131C214.284 14.8401 215.647 15.5846 216.975 16.3433L216.557 16.9417ZM95.9611 14.8783L95.5685 14.266C96.9214 13.5563 98.3103 12.8609 99.6961 12.1996L100.061 12.8255C98.6846 13.4825 97.305 14.1732 95.9611 14.8783ZM208.414 12.6944C207.032 12.0395 205.616 11.401 204.205 10.7967L204.54 10.157C205.96 10.7653 207.386 11.4081 208.777 12.0675L208.414 12.6944ZM104.248 10.9249L103.911 10.2859C105.322 9.67749 106.768 9.08618 108.207 8.52839L108.515 9.17897C107.085 9.73297 105.65 10.3203 104.248 10.9249L104.248 10.9249ZM199.913 9.0544C198.475 8.50198 197.006 7.96923 195.545 7.47053L195.822 6.80838C197.292 7.31035 198.772 7.84689 200.219 8.40295L199.913 9.0544ZM112.855 7.59097L112.576 6.9295C114.041 6.42459 115.538 5.93972 117.026 5.4882L117.275 6.15935C115.796 6.60775 114.31 7.08951 112.855 7.59097ZM191.108 6.04806C189.629 5.60449 188.121 5.18235 186.623 4.79338L186.84 4.11325C188.347 4.50481 189.866 4.92972 191.354 5.37623L191.108 6.04806ZM121.755 4.89067L121.536 4.21123C123.041 3.81517 124.577 3.44159 126.1 3.10066L126.288 3.7877C124.775 4.12638 123.25 4.49755 121.755 4.89067ZM182.086 3.70441C180.575 3.37109 179.033 3.06092 177.503 2.78253L177.658 2.08858C179.198 2.36886 180.75 2.68127 182.271 3.01667L182.086 3.70441ZM130.867 2.85235L130.71 2.15908C132.244 1.875 133.808 1.61511 135.358 1.3865L135.484 2.08495C133.944 2.31218 132.391 2.57034 130.867 2.85235ZM172.884 2.02914C171.345 1.80725 169.78 1.61063 168.234 1.44509L168.326 0.742147C169.883 0.908896 171.458 1.10675 173.007 1.33035L172.884 2.02914ZM140.132 1.48673L140.037 0.784135C141.593 0.612722 143.175 0.467405 144.738 0.35266L144.802 1.05802C143.249 1.17223 141.678 1.31635 140.132 1.48673ZM163.562 1.03037C162.011 0.920992 160.434 0.838394 158.875 0.784999L158.905 0.0775752C160.474 0.131487 162.061 0.214605 163.623 0.324675L163.562 1.03037ZM149.488 0.798652L149.456 0.0915826C151.02 0.0331909 152.61 0.00240291 154.181 0L154.182 0.707778C152.622 0.710181 151.042 0.740763 149.488 0.798652Z"
          fill="#1A1919"/>
    <path d="M239.326 62.4844H236.945C236.476 62.4844 236.095 62.8622 236.095 63.3283V95.0292C236.095 95.4953 236.476 95.8731 236.945 95.8731H239.326C239.795 95.8731 240.176 95.4953 240.176 95.0292V63.3283C240.176 62.8622 239.795 62.4844 239.326 62.4844Z"
          fill="#1A1919"/>
    <path d="M116.263 1.5H223.825C230.999 1.5 236.797 7.27146 236.797 14.3683V261.079C236.797 268.175 230.999 273.947 223.825 273.947H116.263C109.088 273.947 103.291 268.175 103.291 261.079V14.3683C103.291 7.27146 109.088 1.5 116.263 1.5Z"
          fill="#1A1919" stroke="#D0751B" stroke-width="3"/>
    <path d="M219.297 7.17456H203.639V9.04476C203.639 10.2089 203.408 11.3616 202.959 12.4371C202.51 13.5125 201.852 14.4896 201.023 15.3126C200.193 16.1355 199.209 16.7882 198.125 17.2332C197.042 17.6783 195.881 17.907 194.708 17.9064H144.91C143.737 17.907 142.576 17.6783 141.493 17.2332C140.409 16.7882 139.425 16.1355 138.595 15.3126C137.766 14.4896 137.108 13.5125 136.659 12.4371C136.211 11.3616 135.98 10.2089 135.98 9.04476V7.17456H121.319C118.443 7.17456 115.686 8.30861 113.653 10.3272C111.62 12.3459 110.477 15.0837 110.477 17.9385V257.527C110.477 260.382 111.62 263.12 113.653 265.138C115.686 267.157 118.443 268.291 121.319 268.291H219.297C222.173 268.291 224.93 267.157 226.963 265.138C228.996 263.12 230.139 260.382 230.139 257.527V17.9569C230.141 16.5418 229.862 15.1401 229.319 13.8321C228.775 12.524 227.977 11.3352 226.97 10.3337C225.963 9.33227 224.767 8.53776 223.45 7.99567C222.134 7.45359 220.723 7.17456 219.297 7.17456Z"
          fill="white"/>
    <path d="M174.502 8.22601H158.313C157.52 8.22601 156.877 8.86452 156.877 9.65216V10.6409C156.877 11.4285 157.52 12.067 158.313 12.067H174.502C175.296 12.067 175.939 11.4285 175.939 10.6409V9.65216C175.939 8.86452 175.296 8.22601 174.502 8.22601Z"
          fill="white"/>
    <path d="M181.019 12.3278C182.232 12.3278 183.216 11.3513 183.216 10.1466C183.216 8.94196 182.232 7.96539 181.019 7.96539C179.805 7.96539 178.822 8.94196 178.822 10.1466C178.822 11.3513 179.805 12.3278 181.019 12.3278Z"
          fill="white"/>
    <path d="M175.773 161.462C190.035 161.462 201.596 149.984 201.596 135.824C201.596 121.664 190.035 110.185 175.773 110.185C161.512 110.185 149.95 121.664 149.95 135.824C149.95 149.984 161.512 161.462 175.773 161.462Z"
          fill="#E58E37"/>
    <path d="M192.294 126.761L192.293 126.761L189.145 123.658C189.144 123.657 189.144 123.657 189.143 123.656C188.891 123.405 188.591 123.206 188.261 123.07C187.931 122.933 187.577 122.863 187.219 122.863C186.861 122.863 186.507 122.933 186.177 123.07C185.846 123.206 185.546 123.406 185.293 123.658L164.766 144.039L155.368 134.687L155.367 134.685C154.854 134.179 154.162 133.896 153.44 133.896C152.719 133.896 152.027 134.179 151.514 134.685L151.512 134.687L148.362 137.833C148.362 137.833 148.362 137.833 148.362 137.833C147.852 138.342 147.566 139.032 147.566 139.751C147.566 140.47 147.852 141.16 148.362 141.669L148.363 141.67L162.838 156.036C163.091 156.288 163.392 156.488 163.723 156.624C164.053 156.76 164.408 156.831 164.766 156.831C165.124 156.831 165.478 156.76 165.809 156.624C166.14 156.488 166.44 156.288 166.694 156.036L166.849 155.881L166.849 155.863L192.294 130.6C192.548 130.348 192.749 130.049 192.887 129.72C193.025 129.39 193.095 129.037 193.095 128.68C193.095 128.324 193.025 127.97 192.887 127.641C192.749 127.312 192.548 127.013 192.294 126.761ZM204.342 137.525C204.342 144.203 202.347 150.731 198.61 156.283C194.873 161.836 189.561 166.164 183.345 168.72C177.129 171.276 170.29 171.945 163.691 170.642C157.093 169.338 151.032 166.121 146.275 161.399C141.519 156.676 138.28 150.659 136.968 144.11C135.656 137.56 136.33 130.772 138.904 124.602C141.478 118.432 145.838 113.159 151.431 109.448C157.025 105.737 163.602 103.757 170.33 103.757C174.797 103.757 179.22 104.631 183.347 106.328C187.474 108.026 191.224 110.513 194.382 113.649C197.54 116.785 200.045 120.507 201.754 124.604C203.463 128.701 204.342 133.091 204.342 137.525Z"
          stroke="#1A1919"/>
    <path d="M322.396 271.958C322.39 271.975 322.364 272.035 322.24 272.137C322.075 272.273 321.8 272.426 321.399 272.585C320.603 272.902 319.42 273.197 317.922 273.448C314.935 273.95 310.789 274.262 306.196 274.262C301.603 274.262 297.457 273.95 294.47 273.448C292.972 273.197 291.789 272.902 290.992 272.585C290.591 272.426 290.317 272.273 290.152 272.137C290.028 272.035 290.001 271.975 289.996 271.958C290.001 271.942 290.028 271.882 290.152 271.78C290.317 271.644 290.591 271.491 290.992 271.332C291.789 271.015 292.972 270.72 294.47 270.469C297.457 269.967 301.603 269.654 306.196 269.654C310.789 269.654 314.935 269.967 317.922 270.469C319.42 270.72 320.603 271.015 321.399 271.332C321.8 271.491 322.075 271.644 322.24 271.78C322.364 271.881 322.39 271.942 322.396 271.958Z"
          stroke="#1A1919"/>
    <path d="M312.788 266.985L312.741 267.023L312.732 267.035C311.669 267.989 310.485 268.802 309.211 269.454H303.596C303.581 269.424 303.565 269.394 303.548 269.364L303.539 269.349L303.53 269.335C302.974 268.5 302.238 267.801 301.375 267.287C301.214 267.181 301.054 267.078 300.897 266.976C300.032 266.417 299.244 265.908 298.698 265.176C298.395 264.771 298.197 264.256 298.163 263.76C298.128 263.268 298.255 262.833 298.552 262.521L298.552 262.521L298.553 262.52C299.051 261.991 299.918 261.873 300.886 261.91L300.904 261.91L300.921 261.91C301.407 261.895 301.889 262.006 302.318 262.232C302.602 262.409 302.811 262.702 302.953 263.086C303.097 263.476 303.159 263.931 303.163 264.371C303.166 264.666 303.15 264.948 303.132 265.248C303.122 265.423 303.112 265.603 303.105 265.796C303.086 266.294 303.093 266.829 303.218 267.367L304.205 267.255C304.217 264.667 304.82 261.98 306.765 260.625L306.765 260.625L306.768 260.623C307.05 260.423 307.399 260.277 307.715 260.24C308.022 260.204 308.238 260.273 308.378 260.416C308.513 260.58 308.602 260.777 308.635 260.986L308.637 260.996L308.639 261.005C308.768 261.652 308.725 262.322 308.516 262.948C308.307 263.575 307.937 264.137 307.444 264.58L306.644 265.298L307.708 265.448C308.4 265.545 309.023 265.329 309.554 265.025C310.077 264.726 310.556 264.315 310.961 263.966L310.965 263.963C311.362 263.621 311.797 263.305 312.233 263.118C312.664 262.933 313.05 262.892 313.398 263.023C314.015 263.272 314.371 264.09 314.209 264.862C313.961 265.695 313.466 266.434 312.788 266.985Z"
          fill="#E58E37" stroke="#1A1919"/>
    <path d="M89.5998 274.149C89.5071 274.221 89.349 274.309 89.1073 274.405C88.5978 274.607 87.8308 274.8 86.847 274.965C84.8874 275.294 82.1611 275.5 79.1366 275.5C76.112 275.5 73.3857 275.294 71.4261 274.965C70.4423 274.8 69.6754 274.607 69.1658 274.405C68.9242 274.309 68.766 274.221 68.6734 274.149C68.766 274.078 68.9242 273.99 69.1658 273.894C69.6754 273.691 70.4423 273.499 71.4261 273.334C73.3857 273.005 76.112 272.799 79.1366 272.799C82.1611 272.799 84.8874 273.005 86.847 273.334C87.8308 273.499 88.5978 273.691 89.1073 273.894C89.349 273.99 89.5071 274.078 89.5998 274.149ZM68.5998 274.08C68.5999 274.08 68.6007 274.081 68.6018 274.083C68.6003 274.081 68.5997 274.08 68.5998 274.08ZM68.5998 274.219C68.5997 274.219 68.6003 274.218 68.6018 274.216C68.6007 274.218 68.5999 274.219 68.5998 274.219ZM89.6714 274.216C89.6728 274.218 89.6734 274.219 89.6733 274.219C89.6732 274.219 89.6725 274.218 89.6714 274.216ZM89.6714 274.083C89.6725 274.081 89.6732 274.08 89.6733 274.08C89.6734 274.08 89.6728 274.081 89.6714 274.083Z"
          stroke="black"/>
    <path d="M77.519 272.322C77.1385 271.751 76.6345 271.273 76.0443 270.922C75.9383 270.852 75.8346 270.785 75.7334 270.72C75.1587 270.349 74.666 270.031 74.3239 269.573C74.1426 269.33 74.0245 269.021 74.0041 268.728C73.984 268.439 74.0594 268.203 74.2146 268.039L74.2146 268.039L74.2159 268.038C74.4884 267.749 74.9874 267.664 75.6258 267.688L75.643 267.689L75.6601 267.688C75.9494 267.679 76.2358 267.745 76.4916 267.878C76.794 268.073 76.9598 268.553 76.965 269.144C76.9666 269.334 76.9565 269.511 76.9454 269.704C76.9387 269.82 76.9317 269.942 76.9267 270.076C76.9142 270.41 76.9177 270.781 77.0055 271.158L77.9924 271.047C78.0005 269.347 78.3988 267.654 79.6096 266.809L79.6096 266.809L79.6119 266.807C79.7792 266.689 79.9835 266.605 80.1594 266.585C80.3228 266.565 80.4052 266.603 80.4496 266.646C80.5171 266.73 80.5613 266.83 80.5782 266.935L80.5797 266.945L80.5816 266.954C80.6611 267.352 80.6353 267.764 80.5067 268.149C80.3781 268.535 80.151 268.881 79.8471 269.154L79.048 269.871L80.1115 270.021C80.6189 270.092 81.0687 269.932 81.4374 269.721C81.7959 269.516 82.1212 269.237 82.3854 269.01L82.3953 269.001C82.6529 268.78 82.9244 268.585 83.1887 268.471C83.438 268.364 83.6393 268.347 83.8099 268.404C83.9855 268.498 84.1249 268.646 84.2071 268.826C84.2919 269.011 84.3112 269.218 84.2623 269.415C84.139 269.83 83.9166 270.209 83.6156 270.519L83.3597 270.75C82.6734 271.37 81.9092 271.9 81.0862 272.325H77.5213L77.519 272.322Z"
          fill="#E58E37" stroke="#1A1919"/>
    <path d="M335 274.943H0V275.614H335V274.943Z" fill="#1A1919"/>
    <path d="M292.215 36.6075C292.05 36.6613 291.873 36.723 291.688 36.7933C290.697 37.1702 289.523 37.7799 288.672 38.7168L288.091 39.3569C288.142 39.8172 288.208 40.2882 288.289 40.7702L288.305 40.8595L288.288 40.9474L288.288 40.9478L288.287 40.9479L288.287 40.9481L288.287 40.9485L288.287 40.9533L288.282 40.9815C288.278 41.008 288.271 41.0492 288.265 41.1037C288.251 41.2127 288.235 41.3741 288.228 41.575C288.213 41.9782 288.231 42.5335 288.362 43.1425C288.597 44.2334 289.192 45.493 290.632 46.384C290.729 46.2224 290.866 46.0518 291.058 45.8941C291.674 45.3894 292.745 45.106 294.575 45.4244C295.792 45.6244 297.028 45.6833 298.258 45.5999L298.259 45.5998C299.865 45.4949 301.392 44.875 302.61 43.834L302.671 43.7819L302.745 43.7518L302.745 43.7518L302.745 43.7517L302.745 43.7516L302.748 43.7505L302.764 43.7434C302.78 43.7366 302.805 43.7257 302.838 43.7104C302.905 43.6799 303.006 43.6319 303.137 43.5646C303.4 43.43 303.785 43.218 304.262 42.9135C305.214 42.3044 306.532 41.3253 307.971 39.8543C308.757 39.05 309.581 38.0976 310.401 36.9769L292.215 36.6075ZM292.215 36.6075C291.267 38.2603 290.727 40.0207 290.418 41.4459C290.227 42.3227 290.123 43.0805 290.066 43.6206C290.038 43.8908 290.021 44.107 290.012 44.2569C290.007 44.3318 290.004 44.3902 290.002 44.4306L290 44.4773L290 44.4902L290 44.494L290 44.4951L290 44.4956C290 44.4957 290 44.4959 290.5 44.5101L290 44.4959L290.997 44.5606C291.157 42.9856 292.021 40.9975 292.881 39.3602C293.306 38.5511 293.721 37.8446 294.03 37.3405C294.066 37.2811 294.101 37.2246 294.134 37.1711C294.177 37.2906 294.222 37.428 294.268 37.5825C294.468 38.2552 294.665 39.1615 294.839 40.0824C295.012 40.9998 295.161 41.9175 295.266 42.6068C295.319 42.9512 295.36 43.238 295.389 43.4385C295.403 43.5387 295.414 43.6174 295.422 43.6708L295.43 43.7316L295.432 43.747L295.433 43.7508L295.433 43.7517L295.433 43.7519L295.928 43.6853L295.433 43.752L295.631 45.2288L296.364 43.9311C296.829 43.1073 296.975 42.1297 296.957 41.1664C296.939 40.1994 296.756 39.2083 296.525 38.326C296.294 37.4415 296.011 36.6517 295.787 36.0838C295.675 35.7993 295.577 35.5694 295.506 35.4097C295.503 35.4016 295.499 35.3938 295.496 35.3861C295.623 35.1764 295.836 34.8969 296.122 34.5673C296.49 34.145 296.938 33.684 297.377 33.2539C297.814 32.8248 298.237 32.4314 298.551 32.145C298.626 32.0759 298.696 32.0132 298.757 31.9577C298.819 32.0369 298.89 32.1446 298.965 32.2894C299.141 32.6264 299.305 33.0885 299.456 33.65C299.755 34.7703 299.977 36.2044 300.139 37.633C300.301 39.0574 300.4 40.4581 300.46 41.5041C300.489 42.0267 300.509 42.4598 300.521 42.762C300.527 42.913 300.531 43.0313 300.534 43.1116L300.537 43.2028L300.537 43.2259L300.537 43.2315L300.538 43.2329L300.538 43.2332L301.037 43.2195L300.538 43.2332L301.493 43.4251C302.727 40.6895 302.318 37.3874 301.648 34.8421C301.31 33.5573 300.899 32.4386 300.572 31.6411C300.415 31.2576 300.277 30.9475 300.175 30.7278L292.215 36.6075ZM288.302 38.3806L288.001 38.3361C288.001 38.3361 288.001 38.3361 288.001 38.336C288.072 38.3466 288.17 38.361 288.302 38.3806ZM287.971 37.7274C287.889 35.388 288.221 33.3497 288.869 31.5714L289.272 32.1168C290.788 31.4487 292.835 31.2073 294.545 31.1415C295.207 31.116 295.808 31.1171 296.296 31.1278C295.945 31.5078 295.557 31.972 295.194 32.4231C294.806 32.9061 294.441 33.3812 294.174 33.7351C294.051 33.8979 293.948 34.0353 293.873 34.1364C291.239 34.3368 289.714 35.2995 288.848 36.2845C288.407 36.7853 288.149 37.2782 288.001 37.6507C287.99 37.6769 287.981 37.7025 287.971 37.7274ZM312.618 20.7374C311.15 20.1649 309.609 19.8193 308.049 19.7066C309.941 19.4213 311.727 19.2592 313.276 19.1707C314.685 19.0902 315.894 19.0706 316.804 19.0738C316.395 19.2516 315.941 19.4405 315.481 19.6263C314.725 19.9324 313.964 20.2269 313.392 20.4451C313.106 20.5542 312.867 20.644 312.7 20.7066L312.618 20.7374ZM301.823 21.0906C302.531 20.874 303.243 20.6801 303.953 20.5067C303.955 20.5116 303.956 20.5165 303.958 20.5216C303.964 20.5424 303.972 20.5642 303.982 20.5869C304.002 20.6326 304.03 20.6799 304.065 20.7274C304.137 20.8227 304.238 20.9117 304.373 20.9909C304.635 21.1454 305.05 21.2778 305.723 21.3494C306.337 21.415 307.723 21.6571 308.977 21.8877C309.241 21.9362 309.498 21.984 309.739 22.0291L308.465 22.5944C305.018 21.5427 302.339 21.4996 300.499 21.7335C300.12 21.7816 299.777 21.8415 299.471 21.9065C300.242 21.6045 301.029 21.3335 301.823 21.0906ZM297.678 22.6801C297.678 22.6801 297.678 22.6801 297.678 22.6801C297.712 22.7442 297.76 22.8337 297.826 22.9583L297.678 22.6801ZM303.827 23.6991C304.626 23.8075 305.348 23.9257 305.918 24.0265L303.19 25.6447C299.454 24.6349 296.7 24.8288 294.853 25.3019C293.914 25.5423 293.215 25.8533 292.745 26.1094C292.51 26.2374 292.333 26.3515 292.211 26.4361C292.167 26.4667 292.13 26.4935 292.101 26.5156C293.663 24.936 295.57 23.6844 297.647 22.6947L297.889 23.4544C299.589 23.2404 301.904 23.4378 303.827 23.6991ZM298.383 27.0251C299.401 27.0761 300.334 27.1578 301.023 27.2282L298.416 29.3425C295.117 28.6513 292.721 29.0972 291.124 29.7513C290.31 30.0849 289.711 30.4696 289.312 30.776C289.243 30.8287 289.18 30.879 289.123 30.9264C289.674 29.6214 290.402 28.4641 291.262 27.4362C291.504 27.1472 291.757 26.8681 292.019 26.5984L292.502 27.4381C293.174 27.201 294.107 27.0675 295.161 27.0101C296.207 26.9532 297.336 26.9727 298.383 27.0251ZM288.894 31.5059C288.894 31.5059 288.894 31.5059 288.894 31.5059C288.941 31.5467 288.999 31.5971 289.071 31.6593L288.894 31.5059ZM289.447 31.988L289.448 31.987L289.448 31.9874L289.447 31.988ZM292.335 26.9666L292.021 26.5964C292.021 26.5963 292.021 26.5962 292.022 26.5961C292.042 26.6212 292.111 26.7023 292.335 26.9666ZM292.657 27.3492L292.658 27.3483L292.658 27.3487L292.657 27.3492Z"
          fill="#E58E37" stroke="#1A1919"/>
    <path d="M27.3444 173.573C27.3444 173.573 11.5618 172.628 13.4057 183.622C13.4057 183.622 13.0345 185.564 14.8094 186.447C14.8094 186.447 14.8384 185.622 16.4333 185.906C16.9997 186.001 17.5754 186.029 18.1484 185.989C18.9232 185.938 19.6598 185.637 20.2459 185.131C20.2459 185.131 24.6898 183.308 26.4176 176.1C26.4176 176.1 27.6925 174.529 27.6424 174.125L24.976 175.255C24.976 175.255 25.8857 177.164 25.1712 178.752C25.1712 178.752 25.084 175.325 24.5733 175.403C24.4693 175.403 23.1859 176.067 23.1859 176.067C23.1859 176.067 24.7559 179.394 23.5722 181.811C23.5722 181.811 24.0206 177.712 22.6959 176.306L20.8186 177.411C20.8186 177.411 22.6503 180.846 21.4084 183.651C21.4084 183.651 21.7283 179.35 20.424 177.676L18.7252 178.995C18.7252 178.995 20.4448 182.381 19.3981 184.707C19.3981 184.707 19.2571 179.701 18.3555 179.322C18.3555 179.322 16.8687 180.625 16.64 181.161C16.64 181.161 17.8196 183.635 17.0888 184.918C17.0888 184.918 16.64 181.582 16.2581 181.564C16.2581 181.564 14.7753 183.775 14.6216 185.276C14.6959 183.876 15.1369 182.52 15.901 181.342C15.0454 181.503 14.2557 181.908 13.6291 182.509C13.6291 182.509 13.8619 180.946 16.2666 180.81C16.2666 180.81 17.5126 179.132 17.82 179.029C17.82 179.029 15.4278 178.831 13.978 179.471C13.978 179.471 15.253 177.999 18.2561 178.667L19.9174 177.306C19.9174 177.306 16.7662 176.889 15.43 177.348C15.43 177.348 16.9666 176.045 20.3684 176.994L22.196 175.909C22.196 175.909 19.5088 175.336 17.9098 175.541C17.9098 175.541 19.6 174.638 22.7319 175.615L24.0403 175.033C24.0403 175.033 22.0731 174.649 21.4941 174.588C20.9151 174.526 20.8876 174.369 20.8876 174.369C22.1344 174.163 23.4144 174.306 24.584 174.781C24.584 174.781 27.393 173.744 27.3444 173.573Z"
          fill="#1A1919"/>
</svg>
