<svg width="335" height="134" viewBox="0 0 335 134" fill="none" xmlns="http://www.w3.org/2000/svg">
    <path opacity="0.1" d="M9.20651 110.229C14.2911 110.229 18.413 109.662 18.413 108.961C18.413 108.261 14.2911 107.693 9.20651 107.693C4.12189 107.693 0 108.261 0 108.961C0 109.662 4.12189 110.229 9.20651 110.229Z" fill="url(#paint0_linear)"/>
    <path opacity="0.1" d="M44.4744 113.812C49.559 113.812 53.6809 113.244 53.6809 112.544C53.6809 111.844 49.559 111.276 44.4744 111.276C39.3898 111.276 35.2679 111.844 35.2679 112.544C35.2679 113.244 39.3898 113.812 44.4744 113.812Z" fill="url(#paint1_linear)"/>
    <path opacity="0.1" d="M86.0178 108.961C91.1024 108.961 95.2243 108.394 95.2243 107.693C95.2243 106.993 91.1024 106.425 86.0178 106.425C80.9332 106.425 76.8113 106.993 76.8113 107.693C76.8113 108.394 80.9332 108.961 86.0178 108.961Z" fill="url(#paint2_linear)"/>
    <path opacity="0.1" d="M30.358 123.645C33.9735 123.645 36.9045 123.242 36.9045 122.745C36.9045 122.248 33.9735 121.845 30.358 121.845C26.7424 121.845 23.8115 122.248 23.8115 122.745C23.8115 123.242 26.7424 123.645 30.358 123.645Z" fill="url(#paint3_linear)"/>
    <path opacity="0.1" d="M66.9665 122.745C70.582 122.745 73.513 122.342 73.513 121.845C73.513 121.348 70.582 120.945 66.9665 120.945C63.3509 120.945 60.4199 121.348 60.4199 121.845C60.4199 122.342 63.3509 122.745 66.9665 122.745Z" fill="url(#paint4_linear)"/>
    <path d="M45.1847 100.52L44.4135 109.46C44.1208 108.35 43.762 106.927 43.3766 105.255C42.4022 101.027 41.2587 95.2159 40.5804 88.8793C39.9018 82.5399 39.6907 75.6914 40.5722 69.3827C41.4543 63.0691 43.4243 57.3428 47.0677 53.1989C58.068 40.6886 70.5156 42.192 76.0931 43.7352L76.0975 43.7364C77.4971 44.11 78.799 44.7838 79.9131 45.7112C81.0264 46.6381 81.9256 47.7962 82.5484 49.1054C83.4866 51.1313 83.8763 53.786 82.3568 56.9265C80.8243 60.0937 77.3258 63.8049 70.3597 67.8452C58.538 74.702 52.2413 82.8452 48.9019 89.2937C47.2333 92.5159 46.305 95.3111 45.7933 97.3061C45.5375 98.3037 45.3858 99.1013 45.2978 99.6526C45.2538 99.9283 45.2258 100.142 45.2086 100.289C45.2 100.362 45.1941 100.419 45.1903 100.458L45.1861 100.503L45.1851 100.516L45.1849 100.517L45.1848 100.519L45.1847 100.52Z" stroke="url(#paint5_linear)"/>
    <path d="M74.2048 49.2683C74.2048 49.2683 36.1379 61.1912 44.6741 112.258" stroke="#1A1919" stroke-miterlimit="10"/>
    <path d="M51.973 53.5438C51.973 53.5438 57.2145 57.08 55.5386 62.3985" stroke="#1A1919" stroke-miterlimit="10"/>
    <path d="M70.386 56.6871C70.386 56.6871 67.1769 53.4224 63.2832 55.2227" stroke="#1A1919" stroke-miterlimit="10"/>
    <path d="M55.3388 73.1176C55.3388 73.1176 49.7122 70.2602 48.2574 73.832" stroke="#1A1919" stroke-miterlimit="10"/>
    <path d="M41.4151 79.0755C41.4151 79.0755 45.6404 78.7397 45.7188 80.765" stroke="#1A1919" stroke-miterlimit="10"/>
    <path d="M65.454 93.9887L65.4526 93.992C63.4096 98.6819 57.9729 107.548 45.1296 111.77C45.1725 111.684 45.2178 111.594 45.2656 111.498C45.6866 110.658 46.2928 109.459 47.0333 108.021C48.5145 105.145 50.5319 101.32 52.678 97.5168C54.8258 93.7106 57.0954 89.94 59.0816 87.1677C60.0763 85.7793 60.987 84.6598 61.7651 83.9133C62.1547 83.5395 62.4952 83.2748 62.7821 83.1151C63.0754 82.9519 63.2587 82.9281 63.3595 82.9444C64.1809 83.0783 64.7918 83.5456 65.2586 84.2298C65.7323 84.924 66.045 85.8266 66.245 86.7707C66.7364 89.2006 66.4599 91.7235 65.454 93.9887Z" stroke="url(#paint6_linear)"/>
    <path d="M63.3152 88.3016C63.3152 88.3016 47.441 111.362 44.3745 112.372" stroke="#1A1919" stroke-miterlimit="10"/>
    <path d="M64.7772 91.8985H61.0724" stroke="#1A1919" stroke-miterlimit="10"/>
    <path d="M60.3379 100.335L54.533 100.586" stroke="#1A1919" stroke-miterlimit="10"/>
    <path d="M56.8044 93.588L57.4358 96.6169" stroke="#1A1919" stroke-miterlimit="10"/>
    <path d="M50.6287 102.811L50.7428 105.564" stroke="#1A1919" stroke-miterlimit="10"/>
    <path d="M43.6302 111.77C30.7777 107.548 25.3575 98.682 23.3108 93.971L23.3109 93.971L23.3091 93.967C22.3049 91.709 22.0273 89.1938 22.5147 86.7704C22.7147 85.8265 23.0274 84.924 23.501 84.2298C23.9678 83.5456 24.5786 83.0784 25.3999 82.9445C25.5006 82.9281 25.6841 82.9518 25.9776 83.1151C26.2645 83.2748 26.6049 83.5395 26.9946 83.9133C27.7727 84.6598 28.6834 85.7793 29.6781 87.1677C31.6643 89.94 33.9338 93.7106 36.0817 97.5168C38.2278 101.32 40.2451 105.145 41.7264 108.021C42.4669 109.459 43.0731 110.658 43.4941 111.498C43.5419 111.594 43.5873 111.685 43.6302 111.77Z" stroke="url(#paint7_linear)"/>
    <path d="M25.4338 88.3016C25.4338 88.3016 41.3081 111.362 44.3745 112.372" stroke="#1A1919" stroke-miterlimit="10"/>
    <path d="M23.9755 91.8985H27.6802" stroke="#1A1919" stroke-miterlimit="10"/>
    <path d="M28.4111 100.335L34.2196 100.586" stroke="#1A1919" stroke-miterlimit="10"/>
    <path d="M31.9486 93.588L31.3171 96.6169" stroke="#1A1919" stroke-miterlimit="10"/>
    <path d="M38.124 102.811L38.0099 105.564" stroke="#1A1919" stroke-miterlimit="10"/>
    <path d="M70.2521 119.407L70.2421 119.415L70.2325 119.424C69.6735 119.929 69.051 120.359 68.3809 120.702H65.5217C65.2087 120.237 64.7992 119.846 64.321 119.554L64.3119 119.548L64.3027 119.543C63.7878 119.258 63.3244 118.888 62.9319 118.449C62.7984 118.261 62.7134 118.027 62.699 117.807C62.6843 117.584 62.743 117.411 62.8501 117.296C62.939 117.201 63.0692 117.132 63.2633 117.09C63.4627 117.046 63.6932 117.037 63.9535 117.037H63.9627L63.9719 117.037C64.1903 117.029 64.4069 117.079 64.5997 117.181C64.8101 117.324 64.9467 117.668 64.951 118.129C64.9001 118.684 64.9086 119.242 64.9762 119.795L65.9725 119.736C65.9795 118.331 66.3056 116.971 67.2607 116.3C67.3905 116.209 67.5446 116.147 67.671 116.132C67.7718 116.12 67.813 116.139 67.8301 116.153C67.8715 116.209 67.8986 116.274 67.9089 116.343L67.9108 116.356L67.9134 116.369C67.9772 116.683 67.9589 117.008 67.8604 117.313L68.3362 117.467L67.8604 117.313C67.7619 117.618 67.5865 117.892 67.3513 118.109L66.5753 118.825L67.6207 118.972C68.0651 119.034 68.4556 118.89 68.7669 118.71C69.067 118.536 69.3383 118.301 69.5523 118.116L69.565 118.105C69.773 117.925 69.9872 117.77 70.1912 117.682C70.3791 117.601 70.5171 117.593 70.6266 117.628C70.7505 117.696 70.8495 117.803 70.9083 117.932C70.9697 118.067 70.9837 118.219 70.9483 118.362C70.8263 118.773 70.5837 119.137 70.2521 119.407Z" stroke="url(#paint8_linear)"/>
    <path d="M12.6208 106.995L12.6119 107.002L12.6034 107.009C12.0437 107.508 11.422 107.933 10.7538 108.272H7.89023C7.57815 107.806 7.16786 107.413 6.68795 107.123L6.67895 107.117L6.66973 107.112C6.15184 106.828 5.68669 106.456 5.2946 106.013C5.16525 105.837 5.07985 105.609 5.06513 105.391C5.05022 105.171 5.10811 104.999 5.215 104.884C5.40874 104.677 5.77865 104.603 6.29791 104.625L6.31726 104.625L6.33661 104.625C6.55633 104.617 6.77422 104.667 6.96847 104.77C7.17773 104.911 7.31168 105.25 7.31581 105.714C7.26497 106.269 7.2734 106.829 7.34099 107.382L8.3373 107.324C8.3443 105.918 8.67047 104.559 9.62585 103.888L9.62585 103.888L9.6279 103.886C9.75626 103.795 9.90927 103.733 10.0348 103.718C10.1372 103.706 10.1785 103.727 10.1957 103.741C10.2385 103.798 10.2669 103.864 10.2783 103.934L10.28 103.944L10.2821 103.954C10.3466 104.268 10.3288 104.593 10.2303 104.898C10.1319 105.203 9.95626 105.476 9.72065 105.693L8.93935 106.409L9.98956 106.556C10.4342 106.618 10.8233 106.476 11.1348 106.296C11.4287 106.126 11.6955 105.897 11.9081 105.714C11.9161 105.707 11.924 105.701 11.9319 105.694C12.1429 105.513 12.3576 105.358 12.5618 105.269C12.7486 105.188 12.886 105.179 12.9954 105.213C13.1187 105.282 13.2172 105.389 13.276 105.518C13.3375 105.654 13.3518 105.806 13.3165 105.951C13.1949 106.361 12.9524 106.725 12.6208 106.995Z" stroke="url(#paint9_linear)"/>
    <path d="M31.8287 119.407L31.8187 119.415L31.8091 119.424C31.2501 119.929 30.6276 120.359 29.9575 120.702H27.0983C26.7853 120.237 26.3758 119.846 25.8976 119.554L25.8885 119.548L25.8793 119.543C25.3644 119.258 24.901 118.888 24.5085 118.449C24.375 118.261 24.29 118.027 24.2756 117.807C24.2609 117.584 24.3196 117.411 24.4267 117.296C24.5153 117.201 24.646 117.133 24.8411 117.09C25.0411 117.046 25.2717 117.037 25.5301 117.037H25.539L25.5478 117.037C25.7678 117.029 25.9858 117.079 26.1804 117.182C26.3891 117.323 26.5234 117.665 26.5276 118.129C26.4767 118.684 26.4852 119.242 26.5528 119.795L27.5491 119.736C27.5561 118.331 27.8822 116.971 28.8373 116.3C28.9671 116.209 29.1212 116.147 29.2476 116.132C29.3484 116.12 29.3896 116.139 29.4067 116.153C29.4481 116.209 29.4752 116.274 29.4855 116.343L29.4874 116.356L29.49 116.369C29.5538 116.683 29.5355 117.008 29.437 117.313C29.3385 117.618 29.1631 117.892 28.9279 118.109L28.1519 118.825L29.1973 118.972C29.6417 119.034 30.0322 118.89 30.3435 118.71C30.6436 118.536 30.9149 118.301 31.1289 118.116L31.1416 118.105C31.3496 117.925 31.5638 117.77 31.7678 117.682C31.9557 117.601 32.0937 117.593 32.2032 117.628C32.3271 117.696 32.4261 117.803 32.485 117.932L32.9401 117.725L32.485 117.932C32.5463 118.067 32.5603 118.219 32.5249 118.362C32.4029 118.773 32.1603 119.137 31.8287 119.407Z" stroke="url(#paint10_linear)"/>
    <path d="M86.6168 94.7024C86.6168 94.7024 87.8505 96.3204 86.0463 98.76C84.242 101.2 82.7587 103.261 83.3577 104.782C83.3577 104.782 86.0783 100.25 88.2926 100.185C90.5069 100.121 89.0521 97.4277 86.6168 94.7024Z" fill="url(#paint11_linear)"/>
    <path opacity="0.1" d="M86.6168 94.7024C86.7243 94.8589 86.8095 95.0296 86.87 95.2096C89.0308 97.7528 90.1789 100.124 88.1037 100.185C86.1676 100.242 83.8499 103.707 83.2936 104.582C83.3115 104.65 83.3329 104.714 83.3578 104.782C83.3578 104.782 86.0784 100.25 88.2927 100.185C90.5069 100.121 89.0522 97.4277 86.6168 94.7024Z" fill="#1A1919"/>
    <path d="M88.9095 96.7634C88.9095 97.3313 88.8453 97.7921 88.7668 97.7921C88.6884 97.7921 88.6241 97.3313 88.6241 96.7634C88.6241 96.1955 88.7062 96.4633 88.7847 96.4633C88.8632 96.4633 88.9095 96.1955 88.9095 96.7634Z" fill="#37E58E"/>
    <path d="M89.698 97.442C89.1985 97.7134 88.7633 97.8777 88.7276 97.7992C88.6919 97.7206 89.0629 97.442 89.5624 97.1812C90.0619 96.9205 89.8621 97.1062 89.9013 97.1812C89.9406 97.2562 90.1974 97.1705 89.698 97.442Z" fill="#37E58E"/>
    <path d="M80.0987 94.7024C80.0987 94.7024 78.865 96.3204 80.6692 98.76C82.4735 101.2 83.9603 103.261 83.3577 104.782C83.3577 104.782 80.6371 100.25 78.4229 100.185C76.2086 100.121 77.6777 97.4277 80.0987 94.7024Z" fill="url(#paint12_linear)"/>
    <path opacity="0.1" d="M80.0987 94.7024C79.9918 94.8586 79.9077 95.0294 79.8491 95.2096C77.6883 97.7528 76.5366 100.124 78.6119 100.185C80.548 100.242 82.8692 103.707 83.4255 104.582C83.4041 104.65 83.3827 104.714 83.3577 104.782C83.3577 104.782 80.6371 100.25 78.4229 100.185C76.2086 100.121 77.6777 97.4277 80.0987 94.7024Z" fill="#1A1919"/>
    <path d="M77.806 96.7634C77.806 97.3313 77.8703 97.7921 77.9487 97.7921C78.0272 97.7921 78.0914 97.3313 78.0914 96.7634C78.0914 96.1955 78.013 96.4633 77.9345 96.4633C77.856 96.4633 77.806 96.1955 77.806 96.7634Z" fill="#37E58E"/>
    <path d="M77.0182 97.442C77.5176 97.7134 77.9529 97.8777 77.9921 97.7992C78.0313 97.7206 77.6532 97.442 77.1573 97.1812C76.6614 96.9205 76.854 97.1062 76.8005 97.1812C76.747 97.2562 76.5223 97.1705 77.0182 97.442Z" fill="#37E58E"/>
    <path d="M78.1982 104.568C78.1982 104.568 81.6498 104.464 82.6874 103.721C83.725 102.978 87.9931 102.093 88.2534 103.282C88.5137 104.471 93.4343 109.197 89.5406 109.229C85.6469 109.261 80.4945 108.622 79.4569 107.99C78.4193 107.358 78.1982 104.568 78.1982 104.568Z" fill="#A8A8A8"/>
    <path opacity="0.2" d="M89.6119 108.815C85.7182 108.847 80.5623 108.208 79.5247 107.575C78.7331 107.093 78.4193 105.364 78.3159 104.564H78.1982C78.1982 104.564 78.4193 107.354 79.4569 107.986C80.4945 108.618 85.6469 109.258 89.5406 109.226C90.6673 109.226 91.0524 108.815 91.031 108.222C90.8706 108.586 90.4463 108.808 89.6119 108.815Z" fill="#1A1919"/>
    <path d="M334.369 128.664C334.321 128.691 334.262 128.72 334.189 128.753C333.835 128.911 333.278 129.079 332.505 129.251C330.968 129.592 328.683 129.925 325.716 130.244C319.788 130.88 311.199 131.455 300.574 131.938C279.328 132.903 249.971 133.5 217.54 133.5C185.11 133.5 155.753 132.903 134.507 131.938C123.882 131.455 115.293 130.88 109.365 130.244C106.398 129.925 104.112 129.592 102.575 129.251C101.803 129.079 101.246 128.911 100.891 128.753C100.819 128.72 100.76 128.691 100.712 128.664C100.76 128.637 100.819 128.607 100.891 128.574C101.246 128.416 101.803 128.248 102.575 128.076C104.112 127.735 106.398 127.402 109.365 127.084C115.293 126.447 123.882 125.872 134.507 125.39C155.753 124.424 185.11 123.827 217.54 123.827C249.971 123.827 279.328 124.424 300.574 125.39C311.199 125.872 319.788 126.447 325.716 127.084C328.683 127.402 330.968 127.735 332.505 128.076C333.278 128.248 333.835 128.416 334.189 128.574C334.262 128.607 334.321 128.637 334.369 128.664ZM100.549 128.547C100.549 128.547 100.549 128.548 100.55 128.549C100.549 128.548 100.549 128.547 100.549 128.547ZM100.549 128.78C100.549 128.78 100.549 128.779 100.55 128.778C100.549 128.779 100.549 128.78 100.549 128.78Z" stroke="#1A1919"/>
    <path d="M314.801 14.3141L327.907 11.5452L288.843 33.4971L290.888 28.0263L314.801 14.3141Z" fill="url(#paint13_linear)" stroke="#1A1919"/>
    <path d="M172.199 14.3141L196.112 28.0263L198.157 33.4971L159.093 11.5453L172.199 14.3141Z" fill="url(#paint14_linear)" stroke="#1A1919"/>
    <path d="M296.761 0.5L289.216 35.8327H197.784L190.239 0.5H296.761Z" fill="url(#paint15_linear)" stroke="#1A1919"/>
    <path opacity="0.1" d="M296.761 0.5L289.216 35.8327H197.784L190.239 0.5H296.761Z" fill="#1A1919" stroke="#1A1919"/>
    <path d="M197.448 110.37V34.6699H289.552V110.37H197.448Z" fill="url(#paint16_linear)" stroke="#1A1919"/>
    <path d="M251.718 88.0581H235.282V110.373H251.718V88.0581Z" fill="#3F3D56"/>
    <path d="M224.663 61.4949V50.3672H262.337V61.4949H224.663Z" fill="white" stroke="#1A1919"/>
    <path d="M108.5 120.5V39.7921H208.5V120.5H108.5Z" fill="#FAFAFA" stroke="#1A1919"/>
    <path d="M167.042 97.2946H149.958V120.496H167.042V97.2946Z" fill="url(#paint17_linear)"/>
    <path d="M138.634 69.6848V58.0755H177.833V69.6848H138.634Z" fill="white" stroke="#1A1919"/>
    <defs>
        <linearGradient id="paint0_linear" x1="-13.5079" y1="107.693" x2="-12.7507" y2="113.231" gradientUnits="userSpaceOnUse">
            <stop stop-color="#F12711"/>
            <stop offset="1" stop-color="#F5AF19"/>
        </linearGradient>
        <linearGradient id="paint1_linear" x1="21.76" y1="111.276" x2="22.5172" y2="116.814" gradientUnits="userSpaceOnUse">
            <stop stop-color="#F12711"/>
            <stop offset="1" stop-color="#F5AF19"/>
        </linearGradient>
        <linearGradient id="paint2_linear" x1="63.3034" y1="106.425" x2="64.0606" y2="111.963" gradientUnits="userSpaceOnUse">
            <stop stop-color="#F12711"/>
            <stop offset="1" stop-color="#F5AF19"/>
        </linearGradient>
        <linearGradient id="paint3_linear" x1="14.2063" y1="121.845" x2="14.7429" y2="125.776" gradientUnits="userSpaceOnUse">
            <stop stop-color="#F12711"/>
            <stop offset="1" stop-color="#F5AF19"/>
        </linearGradient>
        <linearGradient id="paint4_linear" x1="50.8148" y1="120.945" x2="51.3514" y2="124.876" gradientUnits="userSpaceOnUse">
            <stop stop-color="#F12711"/>
            <stop offset="1" stop-color="#F5AF19"/>
        </linearGradient>
        <linearGradient id="paint5_linear" x1="6.92558" y1="42.2233" x2="77.5912" y2="87.3397" gradientUnits="userSpaceOnUse">
            <stop stop-color="#F12711"/>
            <stop offset="1" stop-color="#F5AF19"/>
        </linearGradient>
        <linearGradient id="paint6_linear" x1="27.4184" y1="82.44" x2="59.764" y2="107.097" gradientUnits="userSpaceOnUse">
            <stop stop-color="#F12711"/>
            <stop offset="1" stop-color="#F5AF19"/>
        </linearGradient>
        <linearGradient id="paint7_linear" x1="5.04062" y1="82.44" x2="37.3851" y2="107.093" gradientUnits="userSpaceOnUse">
            <stop stop-color="#F12711"/>
            <stop offset="1" stop-color="#F5AF19"/>
        </linearGradient>
        <linearGradient id="paint8_linear" x1="55.3959" y1="115.628" x2="60.8527" y2="124.771" gradientUnits="userSpaceOnUse">
            <stop stop-color="#F12711"/>
            <stop offset="1" stop-color="#F5AF19"/>
        </linearGradient>
        <linearGradient id="paint9_linear" x1="-2.23957" y1="103.215" x2="3.19247" y2="112.346" gradientUnits="userSpaceOnUse">
            <stop stop-color="#F12711"/>
            <stop offset="1" stop-color="#F5AF19"/>
        </linearGradient>
        <linearGradient id="paint10_linear" x1="16.9725" y1="115.628" x2="22.4293" y2="124.771" gradientUnits="userSpaceOnUse">
            <stop stop-color="#F12711"/>
            <stop offset="1" stop-color="#F5AF19"/>
        </linearGradient>
        <linearGradient id="paint11_linear" x1="78.7023" y1="94.7024" x2="88.7142" y2="100.868" gradientUnits="userSpaceOnUse">
            <stop stop-color="#F12711"/>
            <stop offset="1" stop-color="#F5AF19"/>
        </linearGradient>
        <linearGradient id="paint12_linear" x1="72.8153" y1="94.7024" x2="82.8256" y2="100.865" gradientUnits="userSpaceOnUse">
            <stop stop-color="#F12711"/>
            <stop offset="1" stop-color="#F5AF19"/>
        </linearGradient>
        <linearGradient id="paint13_linear" x1="256.275" y1="10.3809" x2="279.2" y2="51.4765" gradientUnits="userSpaceOnUse">
            <stop stop-color="#F12711"/>
            <stop offset="1" stop-color="#F5AF19"/>
        </linearGradient>
        <linearGradient id="paint14_linear" x1="124.379" y1="10.3809" x2="147.304" y2="51.4765" gradientUnits="userSpaceOnUse">
            <stop stop-color="#F12711"/>
            <stop offset="1" stop-color="#F5AF19"/>
        </linearGradient>
        <linearGradient id="paint15_linear" x1="110.569" y1="1.10048e-06" x2="134.896" y2="72.6832" gradientUnits="userSpaceOnUse">
            <stop stop-color="#F12711"/>
            <stop offset="1" stop-color="#F5AF19"/>
        </linearGradient>
        <linearGradient id="paint16_linear" x1="128.647" y1="34.1699" x2="212.263" y2="136.415" gradientUnits="userSpaceOnUse">
            <stop stop-color="#F12711"/>
            <stop offset="1" stop-color="#F5AF19"/>
        </linearGradient>
        <linearGradient id="paint17_linear" x1="137.424" y1="97.2946" x2="162.121" y2="115.614" gradientUnits="userSpaceOnUse">
            <stop stop-color="#F12711"/>
            <stop offset="1" stop-color="#F5AF19"/>
        </linearGradient>
    </defs>
</svg>
