<svg width="40" height="40" viewBox="0 0 40 40" fill="none" xmlns="http://www.w3.org/2000/svg">
    <g filter="url(#filter0_d)">
        <rect x="8" y="5" width="24" height="24" rx="5" fill="#1A1919"/>
    </g>
    <path d="M26.3594 17.3125L20.5703 12.5547C20.3828 12.3906 20.0078 12.2734 19.75 12.2734C19.4688 12.2734 19.0938 12.3906 18.9062 12.5547L13.1172 17.3125C13.0469 17.3828 13 17.5 13 17.5938C13 17.6641 13.0234 17.7812 13.0703 17.8281L13.3281 18.1328C13.375 18.2031 13.5156 18.25 13.6094 18.25C13.6797 18.25 13.7969 18.2266 13.8438 18.1797L14.5 17.6406V22C14.5 22.4219 14.8281 22.75 15.25 22.75H18.25C18.6484 22.75 18.9766 22.4219 19 22V19.5625H20.5V22C20.5 22.4219 20.8281 22.75 21.25 22.75H24.25C24.6484 22.75 24.9766 22.4219 25 22.0234V17.6406L25.6328 18.1797C25.6797 18.2266 25.7969 18.2734 25.8672 18.2734C25.9609 18.2734 26.1016 18.2031 26.1719 18.1328L26.4062 17.8281C26.4531 17.7812 26.5 17.6641 26.5 17.5938C26.5 17.5 26.4297 17.3828 26.3594 17.3125ZM23.8516 21.625H21.625V19.1875C21.6016 18.7891 21.2734 18.4609 20.875 18.4375H18.625C18.2031 18.4609 17.875 18.7891 17.875 19.1875V21.625H15.625V16.7266L19.75 13.3281L23.875 16.7266L23.8516 21.625Z" fill="#FAFAFA"/>
    <defs>
        <filter id="filter0_d" x="0" y="0" width="40" height="40" filterUnits="userSpaceOnUse" color-interpolation-filters="sRGB">
            <feFlood flood-opacity="0" result="BackgroundImageFix"/>
            <feColorMatrix in="SourceAlpha" type="matrix" values="0 0 0 0 0 0 0 0 0 0 0 0 0 0 0 0 0 0 127 0"/>
            <feOffset dy="3"/>
            <feGaussianBlur stdDeviation="4"/>
            <feColorMatrix type="matrix" values="0 0 0 0 0.101961 0 0 0 0 0.0980392 0 0 0 0 0.0980392 0 0 0 0.4 0"/>
            <feBlend mode="normal" in2="BackgroundImageFix" result="effect1_dropShadow"/>
            <feBlend mode="normal" in="SourceGraphic" in2="effect1_dropShadow" result="shape"/>
        </filter>
    </defs>
</svg>
