<svg width="40" height="40" viewBox="0 0 40 40" fill="none" xmlns="http://www.w3.org/2000/svg">
    <g filter="url(#filter0_d)">
        <rect x="8" y="5" width="24" height="24" rx="5" fill="#1A1919"/>
    </g>
    <path d="M26.6094 14.2891L25.0859 11.8516C24.9453 11.6406 24.7109 11.5 24.4531 11.5H14.9844C14.7266 11.5 14.4688 11.6406 14.3281 11.8516L12.8281 14.2891C12.125 15.3906 12.5938 16.8906 13.7188 17.3594V22.6797C13.7188 23.1484 14.0469 23.5 14.4688 23.5H24.9688C25.3672 23.5 25.7188 23.1484 25.7188 22.6797V17.3594C26.8438 16.8906 27.2891 15.3906 26.6094 14.2891ZM24.5938 22.375H14.8438V20.125H24.5938V22.375ZM24.5703 19H14.8438V17.5C15.4062 17.4062 15.8984 17.125 16.25 16.7266C16.6719 17.1953 17.2812 17.5 17.9844 17.5C18.6641 17.5 19.2734 17.1953 19.6953 16.7266C20.1172 17.1953 20.75 17.5 21.4297 17.5C22.1328 17.5 22.7422 17.1953 23.1641 16.7266C23.5156 17.125 24.0078 17.4062 24.5703 17.5V19ZM25.6953 15.8828C25.625 16.0469 25.4375 16.3281 25.0625 16.375C25.0156 16.375 24.9453 16.3984 24.8984 16.3984C24.5469 16.3984 24.2422 16.2344 24.0078 15.9766L23.1641 15.0391L22.3438 15.9766C22.1094 16.2344 21.7812 16.375 21.4297 16.375C21.1016 16.375 20.7734 16.2344 20.5391 15.9766L19.7188 15.0391L18.875 15.9766C18.6406 16.2344 18.3125 16.375 17.9844 16.375C17.6328 16.375 17.3281 16.2344 17.0938 15.9766L16.25 15.0391L15.4062 15.9766C15.1719 16.2344 14.8672 16.375 14.5156 16.375C14.4688 16.375 14.3984 16.375 14.3516 16.375C13.9766 16.3281 13.7891 16.0469 13.7188 15.8828C13.6016 15.625 13.5547 15.25 13.7656 14.8984L15.1719 12.625H24.2422L25.6484 14.8984C25.8594 15.25 25.8125 15.625 25.6953 15.8828Z" fill="#FAFAFA"/>
    <defs>
        <filter id="filter0_d" x="0" y="0" width="40" height="40" filterUnits="userSpaceOnUse" color-interpolation-filters="sRGB">
            <feFlood flood-opacity="0" result="BackgroundImageFix"/>
            <feColorMatrix in="SourceAlpha" type="matrix" values="0 0 0 0 0 0 0 0 0 0 0 0 0 0 0 0 0 0 127 0"/>
            <feOffset dy="3"/>
            <feGaussianBlur stdDeviation="4"/>
            <feColorMatrix type="matrix" values="0 0 0 0 0.101961 0 0 0 0 0.0980392 0 0 0 0 0.0980392 0 0 0 0.4 0"/>
            <feBlend mode="normal" in2="BackgroundImageFix" result="effect1_dropShadow"/>
            <feBlend mode="normal" in="SourceGraphic" in2="effect1_dropShadow" result="shape"/>
        </filter>
    </defs>
</svg>
