<svg width="335" height="276" viewBox="0 0 335 276" fill="none" xmlns="http://www.w3.org/2000/svg">
    <path d="M153.441 212.333L153.44 211.625C154.996 211.625 156.576 211.596 158.135 211.54L158.166 212.247C156.597 212.304 155.007 212.333 153.441 212.333ZM148.716 212.251C147.152 212.196 145.565 212.111 143.999 212L144.06 211.294C145.616 211.405 147.193 211.489 148.747 211.544L148.716 212.251ZM162.883 211.99L162.821 211.285C164.374 211.172 165.945 211.03 167.492 210.861L167.586 211.564C166.029 211.734 164.447 211.877 162.883 211.99V211.99ZM139.296 211.578C137.736 211.409 136.161 211.209 134.616 210.985L134.74 210.286C136.275 210.509 137.839 210.707 139.389 210.875L139.296 211.578ZM172.265 210.966L172.14 210.267C173.675 210.043 175.228 209.786 176.758 209.505L176.914 210.198C175.374 210.482 173.81 210.74 172.265 210.966V210.966ZM129.966 210.222C128.426 209.94 126.874 209.626 125.354 209.289L125.54 208.601C127.05 208.936 128.591 209.248 130.121 209.528L129.966 210.222ZM181.525 209.26L181.338 208.573C182.853 208.236 184.379 207.867 185.873 207.475L186.091 208.155C184.586 208.549 183.05 208.921 181.525 209.261V209.26ZM120.787 208.188C119.278 207.794 117.759 207.368 116.273 206.921L116.52 206.249C117.997 206.693 119.505 207.117 121.004 207.508L120.787 208.188ZM190.602 206.882L190.354 206.211C191.831 205.765 193.319 205.285 194.776 204.784L195.054 205.445C193.587 205.95 192.089 206.433 190.602 206.882V206.882ZM111.808 205.484C110.34 204.981 108.861 204.443 107.413 203.885L107.72 203.234C109.158 203.788 110.627 204.322 112.085 204.822L111.808 205.484ZM199.425 203.852L199.118 203.2C200.548 202.648 201.984 202.062 203.386 201.459L203.722 202.098C202.311 202.705 200.865 203.295 199.425 203.852V203.852ZM103.094 202.126C101.673 201.516 100.248 200.872 98.8589 200.211L99.223 199.585C100.603 200.241 102.018 200.881 103.43 201.487L103.094 202.126ZM207.94 200.189L207.576 199.563C208.954 198.907 210.334 198.217 211.679 197.514L212.071 198.126C210.717 198.835 209.328 199.529 207.94 200.189V200.189ZM94.7141 198.144C93.3504 197.431 91.9885 196.685 90.6659 195.927L91.0847 195.329C92.3983 196.082 93.7512 196.823 95.1057 197.531L94.7141 198.144ZM216.107 195.915L215.688 195.317C217 194.565 218.316 193.777 219.598 192.975L220.043 193.557C218.752 194.365 217.428 195.158 216.107 195.915L216.107 195.915ZM86.7207 193.566C85.4268 192.757 84.1361 191.915 82.8844 191.063L83.3548 190.498C84.5983 191.344 85.8803 192.18 87.1655 192.984L86.7207 193.566ZM223.873 191.059L223.402 190.493C224.643 189.649 225.885 188.768 227.094 187.875L227.589 188.423C226.372 189.322 225.121 190.209 223.873 191.059V191.059ZM79.163 188.424C77.9481 187.526 76.7368 186.593 75.5624 185.652L76.0813 185.122C77.248 186.057 78.4514 186.984 79.6582 187.875L79.163 188.424ZM231.187 185.654L230.668 185.124C231.834 184.19 232.994 183.221 234.118 182.245L234.66 182.756C233.529 183.738 232.361 184.713 231.187 185.654L231.187 185.654ZM72.088 182.753C70.9593 181.772 69.8347 180.755 68.7455 179.731L69.3095 179.24C70.3915 180.258 71.5087 181.268 72.6301 182.242L72.088 182.753ZM238.002 179.734L237.438 179.243C238.517 178.229 239.589 177.179 240.624 176.123L241.21 176.593C240.167 177.656 239.088 178.712 238.002 179.734V179.734ZM65.5399 176.592C64.4966 175.528 63.4659 174.434 62.4761 173.339L63.0821 172.891C64.065 173.978 65.089 175.066 66.1252 176.122L65.5399 176.592ZM244.276 173.338L243.67 172.89C244.659 171.797 245.634 170.672 246.571 169.548L247.196 169.974C246.253 171.105 245.271 172.237 244.276 173.338ZM59.5597 169.979C58.6167 168.846 57.6866 167.682 56.7952 166.517L57.4386 166.114C58.3241 167.271 59.2479 168.428 60.1848 169.553L59.5597 169.979ZM249.965 166.505L249.321 166.103C250.21 164.94 251.083 163.748 251.917 162.559L252.578 162.938C251.739 164.134 250.859 165.335 249.965 166.505ZM54.1869 162.958C53.3484 161.762 52.525 160.534 51.7395 159.308L52.4165 158.953C53.1967 160.171 54.0148 161.391 54.8475 162.579L54.1869 162.958ZM255.031 159.277L254.354 158.923C255.137 157.698 255.902 156.446 256.627 155.2L257.319 155.529C256.59 156.784 255.82 158.045 255.031 159.277ZM49.4573 155.572C48.7283 154.32 48.0172 153.037 47.344 151.758L48.0505 151.454C48.7193 152.724 49.4256 153.999 50.1496 155.243L49.4573 155.572ZM259.438 151.7L258.731 151.396C259.401 150.121 260.052 148.816 260.665 147.517L261.385 147.795C260.768 149.103 260.113 150.417 259.438 151.7ZM45.4032 147.873C44.7869 146.569 44.1932 145.239 43.6382 143.92L44.3695 143.668C44.9208 144.978 45.5106 146.299 46.1227 147.594L45.4032 147.873ZM263.155 143.82L262.424 143.569C262.978 142.245 263.51 140.895 264.003 139.558L264.745 139.782C264.249 141.129 263.714 142.487 263.155 143.82ZM42.0472 139.894C41.549 138.549 41.0748 137.176 40.6379 135.814L41.3894 135.617C41.8235 136.969 42.2944 138.333 42.7892 139.669L42.0472 139.894ZM266.15 135.7L265.398 135.503C265.83 134.153 266.237 132.773 266.61 131.401L267.37 131.57C266.995 132.951 266.584 134.34 266.15 135.7ZM39.413 131.685C39.037 130.307 38.6876 128.904 38.3739 127.515L39.1407 127.373C39.4521 128.753 39.7993 130.147 40.1725 131.516L39.413 131.685ZM268.403 127.399L267.636 127.258C267.946 125.88 268.228 124.474 268.477 123.081L269.249 123.194C269 124.596 268.715 126.011 268.403 127.399ZM37.5224 123.31C37.2716 121.913 37.0484 120.489 36.8593 119.078L37.6361 118.993C37.8241 120.395 38.0457 121.809 38.295 123.197L37.5224 123.31ZM269.907 118.96L269.13 118.875C269.316 117.474 269.473 116.053 269.596 114.651L270.377 114.707C270.252 116.118 270.095 117.549 269.907 118.96V118.96ZM36.3849 114.825C36.2587 113.412 36.1624 111.976 36.0988 110.558L36.8805 110.53C36.9437 111.938 37.0395 113.364 37.1648 114.768L36.3849 114.825ZM270.658 110.44L269.876 110.412C269.937 109.002 269.968 107.574 269.968 106.167L269.968 105.932H270.751L270.751 106.165C270.751 107.583 270.72 109.02 270.658 110.44ZM36.7825 106.284H36L36.0002 106.165C36.0002 104.785 36.0298 103.386 36.0885 102.011L36.8702 102.038C36.8121 103.405 36.7827 104.794 36.7827 106.167L36.7825 106.284ZM269.865 101.688C269.8 100.283 269.703 98.8565 269.576 97.4496L270.356 97.3918C270.484 98.8083 270.582 100.244 270.647 101.659L269.865 101.688ZM37.1443 97.7995L36.3641 97.7442C36.4872 96.3269 36.6434 94.8958 36.8284 93.4903L37.6055 93.5739C37.4217 94.9701 37.2666 96.3919 37.1443 97.7995ZM269.1 93.2254C268.911 91.8295 268.688 90.4153 268.436 89.0222L269.208 88.908C269.461 90.3104 269.687 91.7341 269.876 93.1397L269.1 93.2254ZM38.2535 89.3687L37.481 89.2567C37.7289 87.8553 38.0119 86.44 38.3223 85.0503L39.0892 85.1903C38.781 86.5708 38.4999 87.9765 38.2535 89.3687L38.2535 89.3687ZM267.584 84.8464C267.27 83.4633 266.921 82.0703 266.547 80.7053L267.307 80.535C267.684 81.909 268.035 83.3118 268.351 84.704L267.584 84.8464ZM40.1106 81.0461L39.3505 80.8781C39.7226 79.5006 40.1314 78.1106 40.5655 76.7465L41.3174 76.9423C40.8862 78.2972 40.4803 79.6779 40.1106 81.0461ZM265.326 76.6055C264.89 75.2537 264.418 73.8905 263.921 72.554L264.663 72.3286C265.163 73.6742 265.639 75.0466 266.077 76.4075L265.326 76.6055ZM42.7071 72.8866L41.9645 72.6633C42.4596 71.3157 42.993 69.9566 43.5499 68.624L44.282 68.8742C43.7287 70.198 43.1988 71.5479 42.7071 72.8866ZM262.336 68.5572C261.78 67.2406 261.188 65.9203 260.578 64.6326L261.297 64.3537C261.912 65.65 262.507 66.9792 263.067 68.3045L262.336 68.5572ZM46.0356 64.9243L45.3153 64.6471C45.9303 63.3395 46.5837 62.0249 47.2571 60.7402L47.9641 61.0433C47.2951 62.3195 46.6463 63.6253 46.0356 64.9243ZM258.645 60.774C257.975 59.5053 257.268 58.2315 256.542 56.9879L257.233 56.6573C257.965 57.9094 258.677 59.1917 259.351 60.4692L258.645 60.774ZM50.0648 57.237L49.3717 56.9084C50.1011 55.6509 50.8695 54.3892 51.6552 53.158L52.333 53.5119C51.5524 54.7347 50.7892 55.9882 50.0648 57.237ZM254.27 53.2803C253.487 52.0619 252.668 50.843 251.835 49.6571L252.495 49.2773C253.334 50.4711 254.159 51.6984 254.947 52.9247L254.27 53.2803ZM54.7652 49.8736L54.1038 49.4952C54.9432 48.2948 55.8211 47.0937 56.7127 45.9254L57.3565 46.3275C56.4708 47.488 55.5991 48.681 54.7652 49.8736ZM249.239 46.1243C248.351 44.9674 247.426 43.811 246.489 42.6878L247.113 42.2614C248.057 43.3922 248.988 44.5561 249.882 45.721L249.239 46.1243ZM60.1028 42.8791L59.4774 42.454C60.4203 41.3188 61.4013 40.1859 62.393 39.0866L62.9994 39.5341C62.0142 40.626 61.0397 41.7514 60.1028 42.8791V42.8791ZM243.588 39.3529C242.601 38.2637 241.575 37.1777 240.541 36.125L241.125 35.6546C242.167 36.7144 243.199 37.8077 244.193 38.9043L243.588 39.3529ZM66.0413 36.2973L65.4556 35.8283C66.4945 34.7666 67.5721 33.7088 68.6588 32.6841L69.2235 33.1741C68.1441 34.1919 67.0735 35.2429 66.0413 36.2973L66.0413 36.2973ZM237.352 33.0089C236.27 31.9927 235.151 30.9839 234.028 30.0104L234.569 29.4993C235.7 30.4794 236.826 31.4949 237.916 32.5179L237.352 33.0089ZM72.5404 30.169L71.9978 29.6589C73.1269 28.6762 74.2943 27.7003 75.4673 26.7578L75.9869 27.2869C74.8216 28.2231 73.662 29.1929 72.5404 30.169ZM230.574 27.1338C229.404 26.1988 228.2 25.2737 226.994 24.3843L227.488 23.8356C228.702 24.7311 229.915 25.6623 231.092 26.6037L230.574 27.1338ZM79.5575 24.5325L79.0615 23.9851C80.2756 23.0857 81.525 22.1977 82.7748 21.3455L83.2459 21.9105C82.0043 22.757 80.7633 23.6393 79.5575 24.5325ZM223.293 21.7662C222.045 20.9188 220.761 20.0837 219.479 19.284L219.923 18.7013C221.214 19.5064 222.506 20.347 223.763 21.2001L223.293 21.7662ZM87.0472 19.4241L86.6013 18.8425C87.8912 18.034 89.2145 17.2396 90.5346 16.4814L90.9542 17.0789C89.6429 17.832 88.3283 18.621 87.0472 19.4241H87.0472ZM215.557 16.9417C214.238 16.188 212.884 15.4486 211.533 14.7441L211.925 14.131C213.284 14.8401 214.647 15.5846 215.975 16.3433L215.557 16.9417ZM94.9611 14.8783L94.5685 14.266C95.9214 13.5563 97.3103 12.8609 98.6961 12.1996L99.0614 12.8255C97.6846 13.4825 96.305 14.1732 94.9611 14.8783ZM207.414 12.6944C206.032 12.0395 204.616 11.401 203.205 10.7967L203.54 10.157C204.96 10.7653 206.386 11.4081 207.777 12.0675L207.414 12.6944ZM103.248 10.9249L102.911 10.2859C104.322 9.67749 105.768 9.08618 107.207 8.52839L107.515 9.17897C106.085 9.73297 104.65 10.3203 103.248 10.9249L103.248 10.9249ZM198.913 9.0544C197.475 8.50198 196.006 7.96923 194.545 7.47053L194.822 6.80838C196.292 7.31035 197.772 7.84689 199.219 8.40295L198.913 9.0544ZM111.855 7.59097L111.576 6.9295C113.041 6.42459 114.538 5.93972 116.026 5.4882L116.275 6.15935C114.796 6.60775 113.31 7.08951 111.855 7.59097ZM190.108 6.04806C188.629 5.60449 187.121 5.18235 185.623 4.79338L185.84 4.11325C187.347 4.50481 188.866 4.92972 190.354 5.37623L190.108 6.04806ZM120.755 4.89067L120.536 4.21123C122.041 3.81517 123.577 3.44159 125.1 3.10066L125.288 3.7877C123.775 4.12638 122.25 4.49755 120.755 4.89067ZM181.086 3.70441C179.575 3.37109 178.033 3.06092 176.503 2.78253L176.658 2.08858C178.198 2.36886 179.75 2.68127 181.271 3.01667L181.086 3.70441ZM129.867 2.85235L129.71 2.15908C131.244 1.875 132.808 1.61511 134.358 1.3865L134.484 2.08495C132.944 2.31218 131.391 2.57034 129.867 2.85235ZM171.884 2.02914C170.345 1.80725 168.78 1.61063 167.234 1.44509L167.326 0.742147C168.883 0.908896 170.458 1.10675 172.007 1.33035L171.884 2.02914ZM139.132 1.48673L139.037 0.784135C140.593 0.612722 142.175 0.467405 143.738 0.35266L143.802 1.05802C142.249 1.17223 140.678 1.31635 139.132 1.48673ZM162.562 1.03037C161.011 0.920992 159.434 0.838394 157.875 0.784999L157.905 0.0775752C159.474 0.131487 161.061 0.214605 162.623 0.324675L162.562 1.03037ZM148.488 0.798652L148.456 0.0915826C150.02 0.0331909 151.61 0.00240291 153.181 0L153.182 0.707778C151.622 0.710181 150.042 0.740763 148.488 0.798652Z"
          fill="#1A1919"/>
    <path d="M137.932 138.646L201.953 138.646L201.953 36.9731C201.951 35.7785 201.46 34.6263 200.577 33.7712C199.692 32.9152 198.485 32.428 197.22 32.4265H86.4111C85.1461 32.428 83.9397 32.9152 83.0549 33.7712C82.1713 34.6262 81.6805 35.7782 81.679 36.9725V113.103H103.792H103.793V114.103C105.02 114.102 106.204 114.536 107.124 115.321L137.932 138.646ZM137.932 138.646C137.931 138.646 137.93 138.646 137.929 138.646C136.683 138.641 135.485 138.202 134.555 137.414C134.554 137.414 134.554 137.413 134.553 137.413L107.773 114.561L137.932 138.646Z"
          fill="white" stroke="#1A1919" stroke-width="2"/>
    <path d="M118.911 55.4565C118.911 61.6614 113.707 66.7194 107.253 66.7194C100.798 66.7194 95.5947 61.6614 95.5947 55.4565C95.5947 49.2516 100.798 44.1935 107.253 44.1935C113.707 44.1935 118.911 49.2516 118.911 55.4565Z"
          fill="white" stroke="#1A1919"/>
    <path d="M131.916 49.655H154.495C154.782 49.655 155.054 49.7655 155.252 49.9573C155.45 50.1485 155.558 50.4043 155.558 50.6673C155.558 50.9304 155.45 51.1862 155.252 51.3774C155.054 51.5692 154.782 51.6797 154.495 51.6797H131.916C131.628 51.6797 131.356 51.5692 131.158 51.3774C130.96 51.1862 130.853 50.9304 130.853 50.6673C130.853 50.4043 130.96 50.1485 131.158 49.9573C131.356 49.7655 131.628 49.655 131.916 49.655Z"
          fill="white" stroke="#1A1919"/>
    <path d="M131.617 59.2333H187.272C187.614 59.2333 188.037 59.6004 188.037 60.2457C188.037 60.891 187.614 61.2581 187.272 61.2581H131.617C131.275 61.2581 130.853 60.891 130.853 60.2457C130.853 59.6004 131.275 59.2333 131.617 59.2333Z"
          fill="white" stroke="#1A1919"/>
    <path d="M100.733 79.4824H182.899C183.191 79.4824 183.608 79.8269 183.608 80.4948C183.608 81.1627 183.191 81.5072 182.899 81.5072H100.733C100.441 81.5072 100.024 81.1627 100.024 80.4948C100.024 79.8269 100.441 79.4824 100.733 79.4824Z"
          fill="white" stroke="#1A1919"/>
    <path d="M100.733 88.8928H182.899C183.191 88.8928 183.608 89.2373 183.608 89.9051C183.608 90.573 183.191 90.9175 182.899 90.9175H100.733C100.441 90.9175 100.024 90.573 100.024 89.9051C100.024 89.2373 100.441 88.8928 100.733 88.8928Z"
          fill="white" stroke="#1A1919"/>
    <path d="M100.733 98.3031H182.899C183.191 98.3031 183.608 98.6476 183.608 99.3155C183.608 99.9833 183.191 100.328 182.899 100.328H100.733C100.441 100.328 100.024 99.9834 100.024 99.3155C100.024 98.6476 100.441 98.3031 100.733 98.3031Z"
          fill="white" stroke="#1A1919"/>
    <path d="M100.733 107.714H182.899C183.191 107.714 183.608 108.058 183.608 108.726C183.608 109.394 183.191 109.738 182.899 109.738H100.733C100.441 109.738 100.024 109.394 100.024 108.726C100.024 108.058 100.441 107.714 100.733 107.714Z"
          fill="white" stroke="#1A1919"/>
    <path d="M137.929 139.646H255.795V138.646M137.929 139.646L251.063 54.6163C252.583 54.6179 254.04 55.2027 255.114 56.2423C256.189 57.2819 256.793 58.6914 256.795 60.1617M137.929 139.646C136.745 139.648 135.588 139.313 134.599 138.683L134.521 138.634L137.929 139.646ZM255.795 138.646H256.795L256.795 60.1617M255.795 138.646H137.929H137.927C137.083 138.647 136.257 138.445 135.521 138.062V60.1623C135.523 58.9679 136.013 57.8159 136.897 56.961C137.782 56.105 138.988 55.6178 140.253 55.6163H251.063C252.328 55.6178 253.534 56.105 254.419 56.961C255.302 57.8161 255.793 58.9683 255.795 60.1628M255.795 138.646L255.795 60.1628M256.795 60.1617L255.795 60.1628M256.795 60.1617L255.795 60.1617V60.1628"
          fill="url(#paint0_linear)" stroke="#1A1919" stroke-width="2"/>
    <path d="M172.753 78.6463C172.753 84.8512 167.549 89.9092 161.095 89.9092C154.64 89.9092 149.437 84.8512 149.437 78.6463C149.437 72.4414 154.64 67.3834 161.095 67.3834C167.549 67.3834 172.753 72.4414 172.753 78.6463Z"
          fill="white" stroke="#1A1919"/>
    <path d="M209.095 73.147L209.442 72.7881L209.095 73.147C209.292 73.3383 209.4 73.594 209.4 73.8571C209.4 74.1202 209.292 74.3759 209.095 74.5672L209.442 74.9265L209.095 74.5672C208.896 74.7589 208.624 74.8695 208.337 74.8695H185.758C185.471 74.8695 185.199 74.7589 185 74.5672C184.803 74.376 184.695 74.1202 184.695 73.8571C184.695 73.594 184.803 73.3383 185 73.147C185.199 72.9553 185.471 72.8447 185.758 72.8447H208.337C208.624 72.8447 208.896 72.9553 209.095 73.147Z"
          fill="white" stroke="#1A1919"/>
    <path d="M185.459 82.4232H241.115C241.456 82.4232 241.879 82.7902 241.879 83.4355C241.879 84.0809 241.456 84.4479 241.115 84.4479H185.459C185.118 84.4479 184.695 84.0809 184.695 83.4355C184.695 82.7902 185.118 82.4232 185.459 82.4232Z"
          fill="white" stroke="#1A1919"/>
    <path d="M154.575 102.672H236.741C237.033 102.672 237.45 103.017 237.45 103.685C237.45 104.352 237.033 104.697 236.741 104.697H154.575C154.283 104.697 153.866 104.352 153.866 103.685C153.866 103.017 154.283 102.672 154.575 102.672Z"
          fill="white" stroke="#1A1919"/>
    <path d="M154.575 112.083H236.741C237.033 112.083 237.45 112.427 237.45 113.095C237.45 113.763 237.033 114.107 236.741 114.107H154.575C154.283 114.107 153.866 113.763 153.866 113.095C153.866 112.427 154.283 112.083 154.575 112.083Z"
          fill="white" stroke="#1A1919"/>
    <path d="M154.575 121.493H236.741C237.033 121.493 237.45 121.837 237.45 122.505C237.45 123.173 237.033 123.518 236.741 123.518H154.575C154.283 123.518 153.866 123.173 153.866 122.505C153.866 121.837 154.283 121.493 154.575 121.493Z"
          fill="white" stroke="#1A1919"/>
    <path d="M154.575 130.903H236.741C237.033 130.903 237.45 131.248 237.45 131.916C237.45 132.584 237.033 132.928 236.741 132.928H154.575C154.283 132.928 153.866 132.584 153.866 131.916C153.866 131.248 154.283 130.903 154.575 130.903Z"
          fill="white" stroke="#1A1919"/>
    <path d="M68.6092 118.405L68.6092 249.767C68.6092 253.341 71.6553 255.327 72.8738 255.129C131.055 255.228 249.429 255.367 257.471 255.129C265.513 254.89 265.898 252.448 265.086 251.256V148.958C265.086 143.436 260.609 138.958 255.086 138.958H135.929L106.077 113.937C99.883 114.136 83.9009 114.414 76.8338 113.937C69.7667 113.461 68.203 116.519 68.6092 118.405Z"
          fill="white"/>
    <mask id="path-19-inside-1" fill="white">
        <path d="M260.095 138.805H137.929C136.754 138.807 135.614 138.423 134.695 137.716C134.622 137.663 134.552 137.606 134.483 137.545L124.142 128.723L107.697 114.691C106.619 113.771 105.231 113.263 103.793 113.263H73.9053C72.3398 113.265 70.839 113.868 69.7321 114.939C68.6251 116.01 68.0022 117.462 68 118.976V249.713C68.0022 251.228 68.6251 252.68 69.7321 253.751C70.839 254.822 72.3398 255.424 73.9053 255.427H260.095C261.66 255.424 263.161 254.822 264.268 253.751C265.375 252.68 265.998 251.228 266 249.713V144.519C265.998 143.004 265.375 141.552 264.268 140.481C263.161 139.41 261.66 138.808 260.095 138.805ZM265.305 249.713C265.304 251.05 264.754 252.331 263.777 253.276C262.8 254.221 261.476 254.753 260.095 254.754H73.9053C72.5239 254.753 71.1995 254.221 70.2227 253.276C69.2459 252.331 68.6964 251.05 68.6947 249.713V118.976C68.6964 117.64 69.2459 116.359 70.2227 115.414C71.1995 114.468 72.5239 113.937 73.9053 113.935H103.793C105.062 113.934 106.288 114.382 107.239 115.195L123.093 128.723L134.021 138.049C135.103 138.966 136.491 139.473 137.929 139.478H260.095C261.476 139.479 262.8 140.011 263.777 140.956C264.754 141.901 265.304 143.182 265.305 144.519V249.713Z"/>
    </mask>
    <path d="M137.929 138.805V136.805L137.926 136.805L137.929 138.805ZM134.695 137.716L135.913 136.13L135.897 136.118L135.881 136.107L134.695 137.716ZM134.483 137.545L135.797 136.038L135.789 136.031L135.781 136.024L134.483 137.545ZM124.142 128.723L122.844 130.244L122.844 130.244L124.142 128.723ZM107.697 114.691L106.398 116.212L106.399 116.213L107.697 114.691ZM103.793 113.263V115.263L103.793 115.263L103.793 113.263ZM73.9053 113.263V111.263L73.9025 111.263L73.9053 113.263ZM68 118.976L66 118.974V118.976H68ZM68 249.713H66L66 249.716L68 249.713ZM73.9053 255.427L73.9025 257.427H73.9053V255.427ZM260.095 255.427V257.427H260.097L260.095 255.427ZM266 249.713L268 249.716V249.713H266ZM266 144.519H268V144.516L266 144.519ZM265.305 249.713L267.305 249.716V249.713H265.305ZM260.095 254.754V256.754H260.097L260.095 254.754ZM73.9053 254.754L73.9029 256.754H73.9053V254.754ZM68.6947 249.713H66.6947L66.6947 249.716L68.6947 249.713ZM68.6947 118.976L66.6947 118.974V118.976H68.6947ZM73.9053 113.935V111.935L73.9029 111.935L73.9053 113.935ZM103.793 113.935V115.935L103.794 115.935L103.793 113.935ZM107.239 115.195L105.939 116.716L105.941 116.717L107.239 115.195ZM123.093 128.723L124.391 127.202L124.391 127.201L123.093 128.723ZM134.021 138.049L132.723 139.571L132.728 139.575L134.021 138.049ZM137.929 139.478L137.923 141.478H137.929V139.478ZM260.095 139.478L260.097 137.478H260.095V139.478ZM265.305 144.519H267.305V144.516L265.305 144.519ZM260.095 136.805H137.929V140.805H260.095V136.805ZM137.926 136.805C137.188 136.806 136.478 136.564 135.913 136.13L133.476 139.303C134.751 140.282 136.321 140.807 137.931 140.805L137.926 136.805ZM135.881 136.107C135.864 136.094 135.838 136.074 135.797 136.038L133.168 139.052C133.266 139.138 133.379 139.231 133.508 139.326L135.881 136.107ZM135.781 136.024L125.44 127.201L122.844 130.244L133.185 139.067L135.781 136.024ZM125.44 127.201L108.996 113.17L106.399 116.213L122.844 130.244L125.44 127.201ZM108.996 113.171C107.551 111.936 105.699 111.262 103.792 111.263L103.793 115.263C104.762 115.263 105.688 115.606 106.398 116.212L108.996 113.171ZM103.793 111.263H73.9053V115.263H103.793V111.263ZM73.9025 111.263C71.8284 111.266 69.8274 112.064 68.3414 113.501L71.1227 116.376C71.8506 115.672 72.8511 115.264 73.908 115.263L73.9025 111.263ZM68.3414 113.501C66.8531 114.941 66.003 116.908 66 118.974L70 118.979C70.0014 118.016 70.3971 117.078 71.1227 116.376L68.3414 113.501ZM66 118.976V249.713H70V118.976H66ZM66 249.716C66.003 251.782 66.8531 253.748 68.3414 255.188L71.1227 252.313C70.3971 251.611 70.0014 250.674 70 249.71L66 249.716ZM68.3414 255.188C69.8274 256.626 71.8285 257.424 73.9025 257.427L73.908 253.427C72.8511 253.425 71.8506 253.018 71.1227 252.313L68.3414 255.188ZM73.9053 257.427H260.095V253.427H73.9053V257.427ZM260.097 257.427C262.172 257.424 264.173 256.626 265.659 255.188L262.877 252.313C262.149 253.018 261.149 253.425 260.092 253.427L260.097 257.427ZM265.659 255.188C267.147 253.748 267.997 251.782 268 249.716L264 249.71C263.999 250.674 263.603 251.611 262.877 252.313L265.659 255.188ZM268 249.713V144.519H264V249.713H268ZM268 144.516C267.997 142.45 267.147 140.484 265.659 139.044L262.877 141.919C263.603 142.621 263.999 143.558 264 144.522L268 144.516ZM265.659 139.044C264.173 137.606 262.172 136.808 260.097 136.805L260.092 140.805C261.149 140.807 262.149 141.214 262.877 141.919L265.659 139.044ZM263.305 249.711C263.304 250.496 262.982 251.263 262.387 251.839L265.168 254.713C266.526 253.399 267.303 251.603 267.305 249.716L263.305 249.711ZM262.387 251.839C261.789 252.417 260.965 252.753 260.092 252.754L260.097 256.754C261.987 256.752 263.812 256.025 265.168 254.713L262.387 251.839ZM260.095 252.754H73.9053V256.754H260.095V252.754ZM73.9076 252.754C73.0349 252.753 72.211 252.417 71.6134 251.839L68.832 254.713C70.188 256.025 72.0128 256.752 73.9029 256.754L73.9076 252.754ZM71.6134 251.839C71.018 251.263 70.6957 250.496 70.6947 249.711L66.6947 249.716C66.6971 251.603 67.4739 253.399 68.832 254.713L71.6134 251.839ZM70.6947 249.713V118.976H66.6947V249.713H70.6947ZM70.6947 118.979C70.6957 118.194 71.018 117.427 71.6134 116.851L68.832 113.976C67.4739 115.29 66.6971 117.086 66.6947 118.974L70.6947 118.979ZM71.6134 116.851C72.211 116.273 73.0349 115.936 73.9076 115.935L73.9029 111.935C72.0128 111.937 70.188 112.664 68.832 113.976L71.6134 116.851ZM73.9053 115.935H103.793V111.935H73.9053V115.935ZM103.794 115.935C104.594 115.935 105.356 116.218 105.939 116.716L108.538 113.675C107.219 112.547 105.53 111.934 103.791 111.935L103.794 115.935ZM105.941 116.717L121.794 130.244L124.391 127.201L108.537 113.674L105.941 116.717ZM121.794 130.244L132.723 139.571L135.319 136.528L124.391 127.202L121.794 130.244ZM132.728 139.575C134.175 140.801 136.021 141.472 137.923 141.478L137.934 137.478C136.961 137.475 136.03 137.131 135.314 136.524L132.728 139.575ZM137.929 141.478H260.095V137.478H137.929V141.478ZM260.092 141.478C260.965 141.479 261.789 141.815 262.387 142.393L265.168 139.519C263.812 138.207 261.987 137.48 260.097 137.478L260.092 141.478ZM262.387 142.393C262.982 142.969 263.304 143.736 263.305 144.521L267.305 144.516C267.303 142.629 266.526 140.833 265.168 139.519L262.387 142.393ZM263.305 144.519V249.713H267.305V144.519H263.305Z"
          fill="#1A1919" mask="url(#path-19-inside-1)"/>
    <path d="M220.842 232.237H118.716C117.334 232.235 116.01 231.704 115.033 230.758C114.056 229.813 113.507 228.532 113.505 227.195V172.75C113.507 171.413 114.056 170.132 115.033 169.187C116.01 168.242 117.334 167.71 118.716 167.709H220.842C222.224 167.71 223.548 168.242 224.525 169.187C225.502 170.132 226.051 171.413 226.053 172.75V227.195C226.051 228.532 225.502 229.813 224.525 230.758C223.548 231.704 222.224 232.235 220.842 232.237ZM118.716 168.381C117.519 168.382 116.371 168.843 115.524 169.662C114.678 170.481 114.201 171.592 114.2 172.75V227.195C114.201 228.354 114.678 229.464 115.524 230.283C116.371 231.102 117.519 231.563 118.716 231.565H220.842C222.039 231.563 223.187 231.102 224.034 230.283C224.88 229.464 225.357 228.354 225.358 227.195V172.75C225.357 171.592 224.88 170.481 224.034 169.662C223.187 168.843 222.039 168.382 220.842 168.381H118.716Z"
          fill="#E6E6E6"/>
    <path d="M135.216 199.637C141.93 199.637 147.374 194.37 147.374 187.874C147.374 181.377 141.93 176.111 135.216 176.111C128.501 176.111 123.058 181.377 123.058 187.874C123.058 194.37 128.501 199.637 135.216 199.637Z"
          fill="#E6E6E6"/>
    <path d="M182.458 181.572H159.879C159.465 181.572 159.067 181.731 158.774 182.015C158.481 182.299 158.316 182.683 158.316 183.084C158.316 183.486 158.481 183.87 158.774 184.154C159.067 184.437 159.465 184.597 159.879 184.597H182.458C182.873 184.597 183.27 184.437 183.563 184.154C183.856 183.87 184.021 183.486 184.021 183.084C184.021 182.683 183.856 182.299 183.563 182.015C183.27 181.731 182.873 181.572 182.458 181.572Z"
          fill="#E6E6E6"/>
    <path d="M215.236 191.15H159.58C158.882 191.15 158.316 191.829 158.316 192.663C158.316 193.496 158.882 194.175 159.58 194.175H215.236C215.934 194.175 216.5 193.496 216.5 192.663C216.5 191.829 215.934 191.15 215.236 191.15Z"
          fill="#E6E6E6"/>
    <path d="M210.862 211.4H128.696C128.029 211.4 127.487 212.078 127.487 212.912C127.487 213.745 128.029 214.424 128.696 214.424H210.862C211.529 214.424 212.071 213.745 212.071 212.912C212.071 212.078 211.529 211.4 210.862 211.4Z"
          fill="#E6E6E6"/>
    <path d="M210.862 220.81H128.696C128.029 220.81 127.487 221.489 127.487 222.322C127.487 223.156 128.029 223.835 128.696 223.835H210.862C211.529 223.835 212.071 223.156 212.071 222.322C212.071 221.489 211.529 220.81 210.862 220.81Z"
          fill="#E6E6E6"/>
    <path d="M322.396 271.667C322.396 271.672 322.395 271.749 322.227 271.897C322.061 272.043 321.787 272.207 321.388 272.377C320.593 272.715 319.413 273.031 317.916 273.3C314.931 273.838 310.787 274.173 306.196 274.173C301.604 274.173 297.46 273.838 294.475 273.3C292.979 273.031 291.798 272.715 291.004 272.377C290.604 272.207 290.331 272.043 290.165 271.897C289.997 271.749 289.995 271.672 289.995 271.667C289.995 271.662 289.997 271.584 290.165 271.436C290.331 271.29 290.604 271.127 291.004 270.957C291.798 270.618 292.979 270.302 294.475 270.033C297.46 269.496 301.604 269.16 306.196 269.16C310.787 269.16 314.931 269.496 317.916 270.033C319.413 270.302 320.593 270.618 321.388 270.957C321.787 271.127 322.061 271.29 322.227 271.436C322.395 271.584 322.396 271.662 322.396 271.667Z"
          stroke="#1A1919"/>
    <path d="M312.774 266.374L312.729 266.413L312.721 266.425C311.657 267.449 310.475 268.32 309.203 269.018H303.606C303.59 268.984 303.573 268.95 303.555 268.916L303.547 268.901L303.538 268.887C302.986 267.998 302.252 267.249 301.388 266.697C301.227 266.584 301.068 266.473 300.912 266.365C300.046 265.766 299.256 265.219 298.708 264.431C298.401 263.99 298.198 263.428 298.163 262.882C298.127 262.337 298.26 261.854 298.563 261.511L298.563 261.511L298.565 261.51C299.063 260.942 299.922 260.818 300.885 260.857L300.903 260.858L300.922 260.857C301.401 260.841 301.878 260.958 302.305 261.199C302.589 261.39 302.804 261.709 302.949 262.131C303.096 262.558 303.159 263.054 303.163 263.531C303.166 263.849 303.149 264.156 303.132 264.48C303.122 264.666 303.112 264.859 303.105 265.062C303.086 265.594 303.093 266.161 303.216 266.728L304.205 266.624C304.217 263.838 304.824 260.936 306.778 259.476L306.778 259.476L306.781 259.474C307.064 259.259 307.41 259.105 307.719 259.066C308.014 259.029 308.225 259.098 308.367 259.254C308.506 259.435 308.599 259.655 308.634 259.892L308.636 259.901L308.637 259.91C308.769 260.616 308.726 261.346 308.513 262.028C308.301 262.71 307.927 263.318 307.431 263.795L306.7 264.498L307.703 264.65C308.406 264.756 309.036 264.52 309.567 264.194C310.09 263.873 310.568 263.433 310.973 263.06L310.978 263.055C311.376 262.688 311.811 262.35 312.245 262.15C312.673 261.954 313.049 261.912 313.387 262.048C313.692 262.18 313.94 262.459 314.093 262.842C314.245 263.221 314.287 263.669 314.207 264.075C313.955 264.981 313.455 265.782 312.774 266.374Z"
          fill="url(#paint1_linear)" stroke="#1A1919"/>
    <path d="M89.63 274.016C89.6227 274.023 89.614 274.031 89.6037 274.04C89.5136 274.12 89.3516 274.219 89.096 274.328C88.5887 274.544 87.8239 274.75 86.8412 274.927C84.884 275.279 82.1597 275.5 79.1366 275.5C76.1134 275.5 73.3892 275.279 71.4319 274.927C70.4492 274.75 69.6845 274.544 69.1772 274.328C68.9215 274.219 68.7595 274.12 68.6694 274.04C68.6591 274.031 68.6504 274.023 68.6431 274.016C68.6504 274.009 68.6591 274 68.6694 273.991C68.7595 273.912 68.9215 273.812 69.1772 273.704C69.6845 273.488 70.4492 273.282 71.4319 273.105C73.3892 272.752 76.1134 272.532 79.1366 272.532C82.1597 272.532 84.884 272.752 86.8412 273.105C87.8239 273.282 88.5887 273.488 89.096 273.704C89.3516 273.812 89.5136 273.912 89.6037 273.991C89.614 274 89.6227 274.009 89.63 274.016ZM68.6074 273.972C68.6074 273.972 68.608 273.973 68.6087 273.975C68.6077 273.973 68.6073 273.972 68.6074 273.972ZM68.6074 274.059C68.6073 274.059 68.6077 274.058 68.6087 274.057C68.608 274.058 68.6074 274.059 68.6074 274.059ZM89.6644 274.056C89.6655 274.058 89.6658 274.059 89.6658 274.059C89.6657 274.059 89.6651 274.058 89.6644 274.056ZM89.6644 273.975C89.6652 273.973 89.6657 273.972 89.6658 273.972C89.6658 273.972 89.6655 273.973 89.6644 273.975Z"
          stroke="black"/>
    <path d="M77.5276 272.089C77.1503 271.483 76.6487 270.972 76.0576 270.595C75.952 270.52 75.8484 270.449 75.7473 270.379C75.1732 269.981 74.6782 269.639 74.3336 269.144C74.1485 268.878 74.0256 268.537 74.0043 268.208C73.983 267.881 74.0636 267.611 74.2263 267.427L74.2263 267.427L74.2276 267.426C74.5006 267.115 74.992 267.027 75.6245 267.052L75.6428 267.053L75.6612 267.052C75.9436 267.043 76.2249 267.111 76.4785 267.253C76.6239 267.353 76.7456 267.526 76.8329 267.779C76.9223 268.039 76.9625 268.346 76.965 268.648C76.9667 268.854 76.9563 269.048 76.9451 269.257C76.9385 269.381 76.9316 269.51 76.9267 269.651C76.9142 270.007 76.918 270.397 77.0038 270.793L77.9924 270.689C78.0005 268.855 78.4029 267.019 79.623 266.106L79.623 266.106L79.6253 266.105C79.7931 265.977 79.9944 265.89 80.1636 265.869C80.3163 265.85 80.3926 265.886 80.4383 265.933C80.5096 266.028 80.5586 266.144 80.5774 266.27L80.5787 266.279L80.5804 266.288C80.662 266.726 80.6354 267.18 80.5036 267.604C80.3717 268.027 80.1401 268.404 79.8343 268.698L79.1038 269.402L80.1066 269.553C80.6252 269.631 81.082 269.455 81.4506 269.229C81.8091 269.009 82.1342 268.71 82.398 268.467L82.4082 268.458C82.6668 268.22 82.9381 268.01 83.2005 267.889C83.4461 267.776 83.6376 267.76 83.7981 267.817C83.9711 267.917 84.115 268.078 84.2019 268.281C84.292 268.492 84.313 268.731 84.2601 268.958C84.134 269.414 83.9071 269.826 83.6033 270.162L83.347 270.41C82.6613 271.074 81.8987 271.641 81.0785 272.096H77.5316L77.5276 272.089Z"
          fill="url(#paint2_linear)" stroke="#1A1919"/>
    <path d="M335 274.867H0V275.586H335V274.867Z" fill="#1A1919"/>
    <path d="M310.401 7.12699C310.268 6.7396 310.15 6.42344 310.06 6.19368C310.076 6.18495 310.093 6.17601 310.11 6.16687C310.379 6.02287 310.739 5.83068 311.107 5.63753C311.475 5.44407 311.847 5.25095 312.14 5.10453C312.261 5.04432 312.366 4.99328 312.45 4.95384C312.527 5.10208 312.61 5.34474 312.691 5.68263C312.86 6.38457 312.988 7.35594 313.082 8.35656C313.176 9.35174 313.235 10.3546 313.27 11.1102C313.288 11.4876 313.3 11.8024 313.307 12.0226C313.311 12.1327 313.313 12.2191 313.315 12.2779L313.317 12.3446L313.317 12.3615L313.317 12.3656L313.317 12.3666L313.317 12.3668L314.136 12.5238C313.249 14.8275 312.256 16.7919 311.235 18.4599C312.032 15.7796 311.792 12.8601 311.324 10.5312C311.049 9.15948 310.691 7.97193 310.401 7.12699ZM312.622 4.87859C312.622 4.87863 312.621 4.87912 312.619 4.8799C312.621 4.87895 312.622 4.87856 312.622 4.87859ZM312.388 4.85318C312.381 4.84714 312.378 4.84269 312.378 4.84197C312.378 4.84126 312.381 4.84428 312.388 4.85318ZM316.099 5.95645C315.727 7.6235 315.297 9.16692 314.825 10.5948C315.038 9.19701 314.915 7.82378 314.702 6.70135C314.545 5.8718 314.336 5.16472 314.166 4.66419C314.121 4.53387 314.08 4.41733 314.042 4.31604L318.472 2.30159C318.236 2.75908 317.908 3.2911 317.57 3.80492C317.228 4.32338 316.883 4.81356 316.622 5.17477C316.492 5.35516 316.383 5.50288 316.307 5.60528C316.269 5.65647 316.239 5.69631 316.219 5.7232L316.196 5.75363L316.19 5.76119L316.189 5.76299L316.189 5.76339L316.189 5.76345L316.189 5.76346L316.123 5.85021L316.099 5.95645ZM305.246 10.3157C305.082 9.89205 304.936 9.55127 304.829 9.31L308.227 7.19746C308.744 7.92811 309.125 8.93383 309.393 10.0965C309.703 11.436 309.851 12.9308 309.909 14.3379C309.967 15.7429 309.935 17.0471 309.888 18.0009C309.865 18.4774 309.838 18.8655 309.817 19.1337C309.806 19.2678 309.797 19.3718 309.791 19.442L309.784 19.5212L309.782 19.5408L309.781 19.5454L309.781 19.5464L309.781 19.5466L309.781 19.5466L309.781 19.5466L310.422 19.7203C309.591 20.9431 308.756 21.9801 307.959 22.8541C306.519 24.4325 305.201 25.4826 304.248 26.1354C303.772 26.4618 303.387 26.689 303.124 26.8331C302.993 26.9052 302.892 26.9565 302.826 26.9892C302.793 27.0055 302.768 27.0171 302.753 27.0243L302.736 27.0319L302.734 27.033L302.733 27.0332L302.733 27.0332L302.733 27.0333L302.658 27.0662L302.597 27.1219C301.377 28.2394 299.853 28.9006 298.257 29.0124L298.256 29.0125C297.028 29.1018 295.795 29.0388 294.581 28.8248C292.743 28.482 291.663 28.7879 291.045 29.3308C290.856 29.4972 290.722 29.676 290.627 29.8441C289.2 28.8889 288.601 27.5381 288.363 26.3561C288.231 25.6964 288.213 25.0951 288.228 24.6585C288.236 24.4408 288.251 24.2658 288.265 24.1473C288.272 24.088 288.278 24.043 288.283 24.0139L288.287 23.9825L288.289 23.9764L288.289 23.9762L288.289 23.976L288.289 23.9757L288.289 23.9754L288.304 23.8932L288.29 23.8097C288.207 23.2817 288.14 22.7659 288.088 22.2621L288.684 21.5594C289.537 20.5521 290.711 19.8991 291.699 19.4963C291.892 19.4173 292.077 19.3485 292.249 19.289C291.279 21.0776 290.729 22.9915 290.416 24.5371C290.227 25.4744 290.123 26.2845 290.066 26.8615C290.038 27.1502 290.021 27.3811 290.012 27.5409C290.007 27.6208 290.004 27.683 290.002 27.7258L290 27.7754L290 27.7889L290 27.7928L290 27.794L290 27.7944C290 27.7945 290 27.7947 290.5 27.8079L290 27.7947L290.997 27.855C291.159 26.1527 292.027 24.0121 292.887 22.2571C293.313 21.3885 293.729 20.6301 294.038 20.0891C294.071 20.0313 294.102 19.976 294.133 19.9234C294.176 20.0514 294.22 20.1978 294.266 20.3613C294.466 21.0857 294.664 22.06 294.838 23.048C295.011 24.0327 295.16 25.0174 295.265 25.7569C295.318 26.1264 295.36 26.4342 295.388 26.6493C295.403 26.7569 295.414 26.8413 295.421 26.8987L295.429 26.964L295.431 26.9805L295.432 26.9846L295.432 26.9856L295.432 26.9858L295.928 26.9237L295.432 26.9859L295.63 28.5637L296.371 27.1566C296.83 26.2848 296.975 25.2493 296.957 24.2243C296.939 23.1949 296.757 22.138 296.527 21.1948C296.297 20.2496 296.015 19.4052 295.791 18.7977C295.679 18.4936 295.581 18.2477 295.511 18.0771C295.503 18.0575 295.495 18.039 295.488 18.0214C295.615 17.7891 295.836 17.4773 296.133 17.111C296.501 16.6575 296.95 16.1627 297.389 15.7015C297.827 15.2412 298.25 14.8192 298.563 14.5121C298.633 14.4439 298.697 14.3814 298.755 14.3255C298.817 14.4108 298.885 14.525 298.959 14.6764C299.137 15.0425 299.303 15.5424 299.453 16.1468C299.754 17.3525 299.977 18.894 300.139 20.4269C300.3 21.9558 300.4 23.4589 300.459 24.5811C300.489 25.1418 300.509 25.6066 300.521 25.9309C300.527 26.093 300.531 26.22 300.534 26.3062L300.537 26.4043L300.537 26.4291L300.537 26.4352L300.537 26.4366L300.537 26.437L301.037 26.4243L300.537 26.437L301.498 26.6181C302.724 23.7055 302.319 20.1847 301.65 17.4596C301.313 16.0855 300.902 14.8886 300.576 14.0352C300.413 13.6081 300.271 13.2661 300.169 13.0299C300.166 13.0247 300.164 13.0195 300.162 13.0144L303.202 10.4892C303.715 11.36 304.101 12.4888 304.384 13.7483C304.715 15.2288 304.895 16.8483 304.987 18.3569C305.078 19.8637 305.08 21.2494 305.059 22.2588C305.049 22.7632 305.033 23.1728 305.019 23.4557C305.012 23.5971 305.006 23.7067 305.002 23.7807L304.997 23.8642L304.995 23.885L304.995 23.8899L304.995 23.891L304.995 23.8912L304.995 23.8912L304.995 23.8912L305.956 24.1166C307.389 20.6492 307.039 16.8259 306.36 13.9134C306.018 12.4505 305.59 11.2005 305.246 10.3157ZM288.302 21.2362L288.002 21.1947C288.002 21.1947 288.002 21.1947 288.002 21.1947C288.073 21.2045 288.17 21.2179 288.302 21.2362ZM312.618 2.35361C311.053 1.70083 309.406 1.32374 307.74 1.23025C309.748 0.892079 311.645 0.704284 313.278 0.604167C314.762 0.513203 316.025 0.494832 316.949 0.501117C316.502 0.712702 315.989 0.941898 315.47 1.16696C314.713 1.4951 313.953 1.81083 313.381 2.04475C313.095 2.16165 312.856 2.25798 312.689 2.32504C312.664 2.33525 312.64 2.34478 312.618 2.35361ZM304.281 1.95329C304.281 1.95325 304.281 1.95322 304.281 1.95318L304.434 1.92601C304.377 1.93624 304.326 1.94529 304.281 1.95329ZM303.947 2.03928L303.947 2.03999C303.95 2.04923 303.952 2.05886 303.955 2.06885C303.961 2.08887 303.968 2.1102 303.977 2.13258C303.996 2.17758 304.021 2.22536 304.056 2.27418C304.125 2.37248 304.224 2.46711 304.36 2.55272C304.624 2.71982 305.043 2.8627 305.719 2.93996C306.332 3.01004 307.716 3.26934 308.971 3.51667C309.275 3.57648 309.569 3.63521 309.84 3.68984L308.463 4.34479C305.017 3.2196 302.338 3.17322 300.494 3.42436C299.954 3.49793 299.487 3.59687 299.095 3.70111C299.989 3.30997 300.906 2.96505 301.833 2.66117C302.535 2.43066 303.242 2.22417 303.947 2.03928ZM297.646 4.38666C297.646 4.38665 297.646 4.38663 297.646 4.38661C297.683 4.45078 297.739 4.54946 297.826 4.70119L297.646 4.38666ZM303.822 5.45897C304.661 5.58112 305.416 5.71477 305.998 5.82619L303.186 7.61494C299.451 6.53505 296.695 6.7428 294.845 7.251C293.904 7.50941 293.203 7.84369 292.732 8.11861C292.497 8.25601 292.319 8.37848 292.198 8.46913C292.137 8.51445 292.09 8.55182 292.057 8.57914C292.04 8.5928 292.027 8.60395 292.018 8.61233L292.006 8.62278L292.002 8.62638L292 8.62776L291.999 8.62835C291.999 8.62862 291.999 8.62887 292.335 8.99871L291.999 8.62887L292.512 9.46635C293.181 9.21352 294.111 9.07064 295.163 9.00921C296.207 8.94826 297.335 8.96918 298.381 9.02525C299.425 9.08126 300.379 9.17192 301.072 9.24865C301.077 9.24926 301.083 9.24986 301.088 9.25046L298.409 11.5797C295.11 10.8415 292.712 11.3203 291.113 12.0226C290.297 12.3809 289.698 12.794 289.298 13.1221C289.225 13.1824 289.158 13.2398 289.098 13.2935C289.655 11.8594 290.395 10.5902 291.273 9.46573C292.959 7.30505 295.173 5.65539 297.622 4.39883L297.893 5.1967C299.588 4.9679 301.899 5.17891 303.822 5.45897ZM292.67 9.36992L292.671 9.369L292.671 9.36937L292.67 9.36992ZM288.885 13.8796C288.885 13.8796 288.885 13.8796 288.885 13.8796C288.934 13.9193 288.995 13.9686 289.071 14.0299L288.885 13.8796ZM294.546 13.4387C295.231 13.4104 295.851 13.4126 296.347 13.4253C295.981 13.8446 295.568 14.3723 295.184 14.8848C294.796 15.4024 294.431 15.9115 294.164 16.2907C294.04 16.4662 293.937 16.6142 293.862 16.7227C291.223 16.9398 289.698 17.9755 288.837 19.0258C288.399 19.5597 288.143 20.0838 287.997 20.4779C287.988 20.5015 287.98 20.5246 287.971 20.5473C287.889 18.0402 288.218 15.8538 288.862 13.9453L289.284 14.482C290.796 13.7676 292.838 13.5092 294.546 13.4387Z"
          fill="url(#paint3_linear)" stroke="#1A1919"/>
    <path d="M27.3444 166.182C27.3444 166.182 11.5618 165.17 13.4057 176.957C13.4057 176.957 13.0345 179.039 14.8094 179.985C14.8094 179.985 14.8384 179.101 16.4333 179.406C16.9997 179.508 17.5754 179.537 18.1484 179.495C18.9232 179.44 19.6598 179.117 20.2459 178.575C20.2459 178.575 24.6898 176.621 26.4176 168.892C26.4176 168.892 27.6925 167.208 27.6424 166.775L24.976 167.986C24.976 167.986 25.8857 170.033 25.1712 171.735C25.1712 171.735 25.084 168.061 24.5733 168.145C24.4693 168.145 23.1859 168.856 23.1859 168.856C23.1859 168.856 24.7559 172.424 23.5722 175.015C23.5722 175.015 24.0206 170.621 22.6959 169.113L20.8186 170.298C20.8186 170.298 22.6503 173.981 21.4084 176.988C21.4084 176.988 21.7283 172.376 20.424 170.581L18.7252 171.996C18.7252 171.996 20.4448 175.626 19.3981 178.12C19.3981 178.12 19.2571 172.753 18.3555 172.346C18.3555 172.346 16.8687 173.743 16.64 174.318C16.64 174.318 17.8196 176.971 17.0888 178.346C17.0888 178.346 16.64 174.769 16.2581 174.751C16.2581 174.751 14.7753 177.121 14.6216 178.73C14.6959 177.229 15.1369 175.775 15.901 174.512C15.0454 174.684 14.2557 175.119 13.6291 175.763C13.6291 175.763 13.8619 174.088 16.2666 173.942C16.2666 173.942 17.5126 172.143 17.82 172.032C17.82 172.032 15.4278 171.82 13.978 172.506C13.978 172.506 15.253 170.928 18.2561 171.644L19.9174 170.185C19.9174 170.185 16.7662 169.738 15.43 170.231C15.43 170.231 16.9666 168.834 20.3684 169.851L22.196 168.688C22.196 168.688 19.5088 168.073 17.9098 168.293C17.9098 168.293 19.6 167.324 22.7319 168.372L24.0403 167.748C24.0403 167.748 22.0731 167.337 21.4941 167.271C20.9151 167.204 20.8876 167.036 20.8876 167.036C22.1344 166.815 23.4144 166.969 24.584 167.478C24.584 167.478 27.393 166.367 27.3444 166.182Z"
          fill="#1A1919"/>
    <defs>
        <linearGradient id="paint0_linear" x1="44.8202" y1="54.6163" x2="133.256" y2="182.723"
                        gradientUnits="userSpaceOnUse">
            <stop stop-color="#F12711"/>
            <stop offset="1" stop-color="#F5AF19"/>
        </linearGradient>
        <linearGradient id="paint1_linear" x1="285.12" y1="258.557" x2="296.168" y2="275.907"
                        gradientUnits="userSpaceOnUse">
            <stop stop-color="#F12711"/>
            <stop offset="1" stop-color="#F5AF19"/>
        </linearGradient>
        <linearGradient id="paint2_linear" x1="65.2202" y1="265.364" x2="72.5054" y2="276.818"
                        gradientUnits="userSpaceOnUse">
            <stop stop-color="#F12711"/>
            <stop offset="1" stop-color="#F5AF19"/>
        </linearGradient>
        <linearGradient id="paint3_linear" x1="264.095" y1="9.2655e-07" x2="298.082" y2="35.6442"
                        gradientUnits="userSpaceOnUse">
            <stop stop-color="#F12711"/>
            <stop offset="1" stop-color="#F5AF19"/>
        </linearGradient>
    </defs>
</svg>
